# MagicaVoxel @ Ephtracy

# group
o 

# material
mtllib powergenerator.mtl
usemtl palette

# normals
vn -1 0 0
vn 1 0 0
vn 0 0 1
vn 0 0 -1
vn 0 -1 0
vn 0 1 0

# texcoords
vt 0.0214844 0.5
vt 0.462891 0.5
vt 0.466797 0.5
vt 0.751953 0.5
vt 0.962891 0.5
vt 0.978516 0.5
vt 0.982422 0.5

# verts
v -0.8 0 0.8
v -0.8 0 -0.8
v -0.8 0.2 0.8
v -0.8 0.2 -0.8
v -0.6 0.4 0.6
v -0.6 0.4 -0.6
v -0.6 0.5 0.6
v -0.6 0.5 -0.6
v -0.6 0.6 0.6
v -0.6 0.6 -0.6
v -0.5 0.2 0.5
v -0.5 0.2 0.3
v -0.5 0.2 -0.3
v -0.5 0.2 -0.5
v -0.5 0.3 0.5
v -0.5 0.3 0.3
v -0.5 0.3 -0.3
v -0.5 0.3 -0.5
v -0.5 0.4 0.5
v -0.5 0.4 0.3
v -0.5 0.4 -0.3
v -0.5 0.4 -0.5
v -0.5 0.6 0.2
v -0.5 0.6 0.1
v -0.5 0.6 0
v -0.5 0.6 -0.1
v -0.5 0.6 -0.2
v -0.5 0.6 -0.3
v -0.5 0.6 -0.4
v -0.5 0.6 -0.5
v -0.5 0.7 0.2
v -0.5 0.7 0.1
v -0.5 0.7 0
v -0.5 0.7 -0.1
v -0.5 0.7 -0.2
v -0.5 0.7 -0.3
v -0.5 0.7 -0.4
v -0.5 0.7 -0.5
v -0.4 0.5 0.5
v -0.4 0.5 0.4
v -0.4 0.5 0.3
v -0.4 0.6 0.5
v -0.4 0.6 0.4
v -0.4 0.6 0.3
v -0.3 0.6 0.5
v -0.3 0.6 0.4
v -0.3 0.6 0.3
v -0.3 0.7 0.5
v -0.3 0.7 0.4
v -0.3 0.7 0.3
v 0.2 0.4 0.6
v 0.2 0.4 -0.6
v 0.2 0.5 0.6
v 0.2 0.5 0.5
v 0.2 0.5 -0.5
v 0.2 0.5 -0.6
v 0.2 0.6 0.6
v 0.2 0.6 0.5
v 0.2 0.6 -0.5
v 0.2 0.6 -0.6
v 0.3 0.2 0.5
v 0.3 0.2 0.3
v 0.3 0.2 -0.3
v 0.3 0.2 -0.5
v 0.3 0.3 0.5
v 0.3 0.3 0.3
v 0.3 0.3 -0.3
v 0.3 0.3 -0.5
v 0.3 0.4 0.5
v 0.3 0.4 0.3
v 0.3 0.4 -0.3
v 0.3 0.4 -0.5
v 0.3 0.5 0.5
v 0.3 0.5 0.4
v 0.3 0.5 0.3
v 0.3 0.5 0.2
v 0.3 0.5 0.1
v 0.3 0.5 0
v 0.3 0.5 -0.1
v 0.3 0.5 -0.2
v 0.3 0.5 -0.3
v 0.3 0.5 -0.4
v 0.3 0.5 -0.5
v 0.3 0.6 0.5
v 0.3 0.6 0.4
v 0.3 0.6 0.3
v 0.3 0.6 -0.5
v 0.3 0.7 0.2
v 0.3 0.7 0.1
v 0.3 0.7 0
v 0.3 0.7 -0.1
v 0.3 0.7 -0.2
v 0.3 0.7 -0.3
v 0.3 0.7 -0.4
v 0.3 0.7 -0.5
v 0.4 0.5 0.1
v 0.4 0.5 0
v 0.4 0.5 -0.1
v 0.4 0.5 -0.2
v 0.4 0.5 -0.3
v 0.4 0.5 -0.4
v 0.4 0.6 0.1
v 0.4 0.6 0
v 0.4 0.6 -0.1
v 0.4 0.6 -0.2
v 0.4 0.6 -0.3
v 0.4 0.6 -0.4
v 0.5 0.5 0.5
v 0.5 0.5 0.2
v 0.5 0.6 0.5
v 0.5 0.6 0.2
v -0.5 0.5 0.5
v -0.5 0.5 0.2
v -0.5 0.6 0.5
v -0.5 0.6 0.2
v -0.4 0.5 0.1
v -0.4 0.5 0
v -0.4 0.5 -0.1
v -0.4 0.5 -0.2
v -0.4 0.5 -0.3
v -0.4 0.5 -0.4
v -0.4 0.6 0.1
v -0.4 0.6 0
v -0.4 0.6 -0.1
v -0.4 0.6 -0.2
v -0.4 0.6 -0.3
v -0.4 0.6 -0.4
v -0.3 0.2 0.5
v -0.3 0.2 0.3
v -0.3 0.2 -0.3
v -0.3 0.2 -0.5
v -0.3 0.3 0.5
v -0.3 0.3 0.3
v -0.3 0.3 -0.3
v -0.3 0.3 -0.5
v -0.3 0.4 0.5
v -0.3 0.4 0.3
v -0.3 0.4 -0.3
v -0.3 0.4 -0.5
v -0.3 0.5 0.5
v -0.3 0.5 0.4
v -0.3 0.5 0.3
v -0.3 0.5 0.2
v -0.3 0.5 0.1
v -0.3 0.5 0
v -0.3 0.5 -0.1
v -0.3 0.5 -0.2
v -0.3 0.5 -0.3
v -0.3 0.5 -0.4
v -0.3 0.5 -0.5
v -0.3 0.6 0.5
v -0.3 0.6 0.4
v -0.3 0.6 0.3
v -0.3 0.6 -0.5
v -0.3 0.7 0.2
v -0.3 0.7 0.1
v -0.3 0.7 0
v -0.3 0.7 -0.1
v -0.3 0.7 -0.2
v -0.3 0.7 -0.3
v -0.3 0.7 -0.4
v -0.3 0.7 -0.5
v -0.2 0.4 0.6
v -0.2 0.4 -0.6
v -0.2 0.5 0.6
v -0.2 0.5 0.5
v -0.2 0.5 -0.5
v -0.2 0.5 -0.6
v -0.2 0.6 0.6
v -0.2 0.6 0.5
v -0.2 0.6 -0.5
v -0.2 0.6 -0.6
v 0.3 0.6 0.5
v 0.3 0.6 0.4
v 0.3 0.6 0.3
v 0.3 0.7 0.5
v 0.3 0.7 0.4
v 0.3 0.7 0.3
v 0.4 0.5 0.5
v 0.4 0.5 0.4
v 0.4 0.5 0.3
v 0.4 0.6 0.5
v 0.4 0.6 0.4
v 0.4 0.6 0.3
v 0.5 0.2 0.5
v 0.5 0.2 0.3
v 0.5 0.2 -0.3
v 0.5 0.2 -0.5
v 0.5 0.3 0.5
v 0.5 0.3 0.3
v 0.5 0.3 -0.3
v 0.5 0.3 -0.5
v 0.5 0.4 0.5
v 0.5 0.4 0.3
v 0.5 0.4 -0.3
v 0.5 0.4 -0.5
v 0.5 0.6 0.2
v 0.5 0.6 0.1
v 0.5 0.6 0
v 0.5 0.6 -0.1
v 0.5 0.6 -0.2
v 0.5 0.6 -0.3
v 0.5 0.6 -0.4
v 0.5 0.6 -0.5
v 0.5 0.7 0.2
v 0.5 0.7 0.1
v 0.5 0.7 0
v 0.5 0.7 -0.1
v 0.5 0.7 -0.2
v 0.5 0.7 -0.3
v 0.5 0.7 -0.4
v 0.5 0.7 -0.5
v 0.6 0.4 0.6
v 0.6 0.4 -0.6
v 0.6 0.5 0.6
v 0.6 0.5 -0.6
v 0.6 0.6 0.6
v 0.6 0.6 -0.6
v 0.8 0 0.8
v 0.8 0 -0.8
v 0.8 0.2 0.8
v 0.8 0.2 -0.8
v -0.8 0 0.8
v -0.8 0.2 0.8
v 0.8 0 0.8
v 0.8 0.2 0.8
v -0.6 0.4 0.6
v -0.6 0.5 0.6
v -0.6 0.6 0.6
v -0.2 0.4 0.6
v -0.2 0.5 0.6
v -0.2 0.6 0.6
v 0.2 0.4 0.6
v 0.2 0.5 0.6
v 0.2 0.6 0.6
v 0.6 0.4 0.6
v 0.6 0.5 0.6
v 0.6 0.6 0.6
v -0.5 0.2 0.5
v -0.5 0.3 0.5
v -0.5 0.4 0.5
v -0.3 0.2 0.5
v -0.3 0.3 0.5
v -0.3 0.4 0.5
v -0.3 0.6 0.5
v -0.3 0.7 0.5
v -0.2 0.6 0.5
v 0.2 0.6 0.5
v 0.3 0.2 0.5
v 0.3 0.3 0.5
v 0.3 0.4 0.5
v 0.3 0.6 0.5
v 0.3 0.7 0.5
v 0.5 0.2 0.5
v 0.5 0.3 0.5
v 0.5 0.4 0.5
v -0.5 0.5 0.2
v -0.5 0.6 0.2
v -0.5 0.7 0.2
v -0.3 0.5 0.2
v -0.3 0.7 0.2
v 0.3 0.5 0.2
v 0.3 0.7 0.2
v 0.5 0.5 0.2
v 0.5 0.6 0.2
v 0.5 0.7 0.2
v -0.5 0.6 0
v -0.5 0.7 0
v -0.4 0.5 0
v -0.4 0.6 0
v -0.3 0.5 0
v -0.3 0.7 0
v 0.3 0.5 0
v 0.3 0.7 0
v 0.4 0.5 0
v 0.4 0.6 0
v 0.5 0.6 0
v 0.5 0.7 0
v -0.5 0.6 -0.2
v -0.5 0.7 -0.2
v -0.4 0.5 -0.2
v -0.4 0.6 -0.2
v -0.3 0.5 -0.2
v -0.3 0.7 -0.2
v 0.3 0.5 -0.2
v 0.3 0.7 -0.2
v 0.4 0.5 -0.2
v 0.4 0.6 -0.2
v 0.5 0.6 -0.2
v 0.5 0.7 -0.2
v -0.5 0.2 -0.3
v -0.5 0.3 -0.3
v -0.5 0.4 -0.3
v -0.3 0.2 -0.3
v -0.3 0.3 -0.3
v -0.3 0.4 -0.3
v 0.3 0.2 -0.3
v 0.3 0.3 -0.3
v 0.3 0.4 -0.3
v 0.5 0.2 -0.3
v 0.5 0.3 -0.3
v 0.5 0.4 -0.3
v -0.5 0.6 -0.4
v -0.5 0.7 -0.4
v -0.4 0.5 -0.4
v -0.4 0.6 -0.4
v -0.3 0.5 -0.4
v -0.3 0.7 -0.4
v 0.3 0.5 -0.4
v 0.3 0.7 -0.4
v 0.4 0.5 -0.4
v 0.4 0.6 -0.4
v 0.5 0.6 -0.4
v 0.5 0.7 -0.4
v -0.3 0.5 -0.5
v -0.3 0.6 -0.5
v -0.2 0.5 -0.5
v -0.2 0.6 -0.5
v 0.2 0.5 -0.5
v 0.2 0.6 -0.5
v 0.3 0.5 -0.5
v 0.3 0.6 -0.5
v -0.5 0.5 0.5
v -0.5 0.6 0.5
v -0.4 0.5 0.5
v -0.4 0.6 0.5
v -0.3 0.5 0.5
v -0.3 0.6 0.5
v -0.2 0.5 0.5
v -0.2 0.6 0.5
v 0.2 0.5 0.5
v 0.2 0.6 0.5
v 0.3 0.5 0.5
v 0.3 0.6 0.5
v 0.4 0.5 0.5
v 0.4 0.6 0.5
v 0.5 0.5 0.5
v 0.5 0.6 0.5
v -0.5 0.2 0.3
v -0.5 0.3 0.3
v -0.5 0.4 0.3
v -0.4 0.5 0.3
v -0.4 0.6 0.3
v -0.3 0.2 0.3
v -0.3 0.3 0.3
v -0.3 0.4 0.3
v -0.3 0.5 0.3
v -0.3 0.6 0.3
v -0.3 0.7 0.3
v 0.3 0.2 0.3
v 0.3 0.3 0.3
v 0.3 0.4 0.3
v 0.3 0.5 0.3
v 0.3 0.6 0.3
v 0.3 0.7 0.3
v 0.4 0.5 0.3
v 0.4 0.6 0.3
v 0.5 0.2 0.3
v 0.5 0.3 0.3
v 0.5 0.4 0.3
v -0.5 0.6 0.1
v -0.5 0.7 0.1
v -0.4 0.5 0.1
v -0.4 0.6 0.1
v -0.3 0.5 0.1
v -0.3 0.7 0.1
v 0.3 0.5 0.1
v 0.3 0.7 0.1
v 0.4 0.5 0.1
v 0.4 0.6 0.1
v 0.5 0.6 0.1
v 0.5 0.7 0.1
v -0.5 0.6 -0.1
v -0.5 0.7 -0.1
v -0.4 0.5 -0.1
v -0.4 0.6 -0.1
v -0.3 0.5 -0.1
v -0.3 0.7 -0.1
v 0.3 0.5 -0.1
v 0.3 0.7 -0.1
v 0.4 0.5 -0.1
v 0.4 0.6 -0.1
v 0.5 0.6 -0.1
v 0.5 0.7 -0.1
v -0.5 0.6 -0.3
v -0.5 0.7 -0.3
v -0.4 0.5 -0.3
v -0.4 0.6 -0.3
v -0.3 0.5 -0.3
v -0.3 0.7 -0.3
v 0.3 0.5 -0.3
v 0.3 0.7 -0.3
v 0.4 0.5 -0.3
v 0.4 0.6 -0.3
v 0.5 0.6 -0.3
v 0.5 0.7 -0.3
v -0.5 0.2 -0.5
v -0.5 0.3 -0.5
v -0.5 0.4 -0.5
v -0.5 0.6 -0.5
v -0.5 0.7 -0.5
v -0.3 0.2 -0.5
v -0.3 0.3 -0.5
v -0.3 0.4 -0.5
v -0.3 0.6 -0.5
v -0.3 0.7 -0.5
v 0.3 0.2 -0.5
v 0.3 0.3 -0.5
v 0.3 0.4 -0.5
v 0.3 0.6 -0.5
v 0.3 0.7 -0.5
v 0.5 0.2 -0.5
v 0.5 0.3 -0.5
v 0.5 0.4 -0.5
v 0.5 0.6 -0.5
v 0.5 0.7 -0.5
v -0.6 0.4 -0.6
v -0.6 0.5 -0.6
v -0.6 0.6 -0.6
v -0.2 0.4 -0.6
v -0.2 0.5 -0.6
v -0.2 0.6 -0.6
v 0.2 0.4 -0.6
v 0.2 0.5 -0.6
v 0.2 0.6 -0.6
v 0.6 0.4 -0.6
v 0.6 0.5 -0.6
v 0.6 0.6 -0.6
v -0.8 0 -0.8
v -0.8 0.2 -0.8
v 0.8 0 -0.8
v 0.8 0.2 -0.8
v -0.8 0 0.8
v 0.8 0 0.8
v -0.8 0 -0.8
v 0.8 0 -0.8
v -0.6 0.4 0.6
v -0.2 0.4 0.6
v 0.2 0.4 0.6
v 0.6 0.4 0.6
v -0.5 0.4 0.5
v -0.3 0.4 0.5
v 0.3 0.4 0.5
v 0.5 0.4 0.5
v -0.5 0.4 0.3
v -0.3 0.4 0.3
v 0.3 0.4 0.3
v 0.5 0.4 0.3
v -0.5 0.4 -0.3
v -0.3 0.4 -0.3
v 0.3 0.4 -0.3
v 0.5 0.4 -0.3
v -0.5 0.4 -0.5
v -0.3 0.4 -0.5
v 0.3 0.4 -0.5
v 0.5 0.4 -0.5
v -0.6 0.4 -0.6
v -0.2 0.4 -0.6
v 0.2 0.4 -0.6
v 0.6 0.4 -0.6
v -0.3 0.6 0.5
v -0.2 0.6 0.5
v 0.2 0.6 0.5
v 0.3 0.6 0.5
v -0.3 0.6 0.4
v 0.3 0.6 0.4
v -0.3 0.6 0.3
v 0.3 0.6 0.3
v -0.8 0.2 0.8
v 0.8 0.2 0.8
v -0.5 0.2 0.5
v -0.3 0.2 0.5
v 0.3 0.2 0.5
v 0.5 0.2 0.5
v -0.5 0.2 0.3
v -0.3 0.2 0.3
v 0.3 0.2 0.3
v 0.5 0.2 0.3
v -0.5 0.2 -0.3
v -0.3 0.2 -0.3
v 0.3 0.2 -0.3
v 0.5 0.2 -0.3
v -0.5 0.2 -0.5
v -0.3 0.2 -0.5
v 0.3 0.2 -0.5
v 0.5 0.2 -0.5
v -0.8 0.2 -0.8
v 0.8 0.2 -0.8
v -0.5 0.5 0.5
v -0.4 0.5 0.5
v -0.3 0.5 0.5
v -0.2 0.5 0.5
v 0.2 0.5 0.5
v 0.3 0.5 0.5
v 0.4 0.5 0.5
v 0.5 0.5 0.5
v -0.4 0.5 0.4
v -0.3 0.5 0.4
v 0.3 0.5 0.4
v 0.4 0.5 0.4
v -0.4 0.5 0.3
v -0.3 0.5 0.3
v 0.3 0.5 0.3
v 0.4 0.5 0.3
v -0.5 0.5 0.2
v -0.3 0.5 0.2
v 0.3 0.5 0.2
v 0.5 0.5 0.2
v -0.4 0.5 0.1
v -0.3 0.5 0.1
v 0.3 0.5 0.1
v 0.4 0.5 0.1
v -0.4 0.5 0
v -0.3 0.5 0
v 0.3 0.5 0
v 0.4 0.5 0
v -0.4 0.5 -0.1
v -0.3 0.5 -0.1
v 0.3 0.5 -0.1
v 0.4 0.5 -0.1
v -0.4 0.5 -0.2
v -0.3 0.5 -0.2
v 0.3 0.5 -0.2
v 0.4 0.5 -0.2
v -0.4 0.5 -0.3
v -0.3 0.5 -0.3
v 0.3 0.5 -0.3
v 0.4 0.5 -0.3
v -0.4 0.5 -0.4
v -0.3 0.5 -0.4
v 0.3 0.5 -0.4
v 0.4 0.5 -0.4
v -0.3 0.5 -0.5
v -0.2 0.5 -0.5
v 0.2 0.5 -0.5
v 0.3 0.5 -0.5
v -0.6 0.6 0.6
v -0.2 0.6 0.6
v 0.2 0.6 0.6
v 0.6 0.6 0.6
v -0.5 0.6 0.5
v -0.4 0.6 0.5
v -0.3 0.6 0.5
v -0.2 0.6 0.5
v 0.2 0.6 0.5
v 0.3 0.6 0.5
v 0.4 0.6 0.5
v 0.5 0.6 0.5
v -0.4 0.6 0.4
v -0.3 0.6 0.4
v 0.3 0.6 0.4
v 0.4 0.6 0.4
v -0.4 0.6 0.3
v -0.3 0.6 0.3
v 0.3 0.6 0.3
v 0.4 0.6 0.3
v -0.5 0.6 0.2
v 0.5 0.6 0.2
v -0.5 0.6 0.1
v -0.4 0.6 0.1
v 0.4 0.6 0.1
v 0.5 0.6 0.1
v -0.5 0.6 0
v -0.4 0.6 0
v 0.4 0.6 0
v 0.5 0.6 0
v -0.5 0.6 -0.1
v -0.4 0.6 -0.1
v 0.4 0.6 -0.1
v 0.5 0.6 -0.1
v -0.5 0.6 -0.2
v -0.4 0.6 -0.2
v 0.4 0.6 -0.2
v 0.5 0.6 -0.2
v -0.5 0.6 -0.3
v -0.4 0.6 -0.3
v 0.4 0.6 -0.3
v 0.5 0.6 -0.3
v -0.5 0.6 -0.4
v -0.4 0.6 -0.4
v 0.4 0.6 -0.4
v 0.5 0.6 -0.4
v -0.5 0.6 -0.5
v -0.3 0.6 -0.5
v -0.2 0.6 -0.5
v 0.2 0.6 -0.5
v 0.3 0.6 -0.5
v 0.5 0.6 -0.5
v -0.6 0.6 -0.6
v -0.2 0.6 -0.6
v 0.2 0.6 -0.6
v 0.6 0.6 -0.6
v -0.3 0.7 0.5
v 0.3 0.7 0.5
v -0.3 0.7 0.4
v 0.3 0.7 0.4
v -0.3 0.7 0.3
v 0.3 0.7 0.3
v -0.5 0.7 0.2
v -0.3 0.7 0.2
v 0.3 0.7 0.2
v 0.5 0.7 0.2
v -0.5 0.7 0.1
v -0.3 0.7 0.1
v 0.3 0.7 0.1
v 0.5 0.7 0.1
v -0.5 0.7 0
v -0.3 0.7 0
v 0.3 0.7 0
v 0.5 0.7 0
v -0.5 0.7 -0.1
v -0.3 0.7 -0.1
v 0.3 0.7 -0.1
v 0.5 0.7 -0.1
v -0.5 0.7 -0.2
v -0.3 0.7 -0.2
v 0.3 0.7 -0.2
v 0.5 0.7 -0.2
v -0.5 0.7 -0.3
v -0.3 0.7 -0.3
v 0.3 0.7 -0.3
v 0.5 0.7 -0.3
v -0.5 0.7 -0.4
v -0.3 0.7 -0.4
v 0.3 0.7 -0.4
v 0.5 0.7 -0.4
v -0.5 0.7 -0.5
v -0.3 0.7 -0.5
v 0.3 0.7 -0.5
v 0.5 0.7 -0.5

# faces
f 3/4/1 2/4/1 1/4/1
f 4/4/1 2/4/1 3/4/1
f 7/6/1 6/6/1 5/6/1
f 8/6/1 6/6/1 7/6/1
f 9/2/1 8/2/1 7/2/1
f 10/2/1 8/2/1 9/2/1
f 15/3/1 12/3/1 11/3/1
f 16/3/1 12/3/1 15/3/1
f 17/3/1 14/3/1 13/3/1
f 18/3/1 14/3/1 17/3/1
f 19/7/1 16/7/1 15/7/1
f 20/7/1 16/7/1 19/7/1
f 21/7/1 18/7/1 17/7/1
f 22/7/1 18/7/1 21/7/1
f 31/5/1 24/5/1 23/5/1
f 32/5/1 24/5/1 31/5/1
f 33/5/1 26/5/1 25/5/1
f 34/5/1 26/5/1 33/5/1
f 35/5/1 28/5/1 27/5/1
f 36/5/1 28/5/1 35/5/1
f 37/5/1 30/5/1 29/5/1
f 38/5/1 30/5/1 37/5/1
f 42/6/1 40/6/1 39/6/1
f 43/1/1 41/1/1 40/1/1
f 43/6/1 40/6/1 42/6/1
f 44/1/1 41/1/1 43/1/1
f 48/6/1 46/6/1 45/6/1
f 49/1/1 47/1/1 46/1/1
f 49/6/1 46/6/1 48/6/1
f 50/1/1 47/1/1 49/1/1
f 53/6/1 52/6/1 51/6/1
f 54/6/1 52/6/1 53/6/1
f 55/6/1 52/6/1 54/6/1
f 56/6/1 52/6/1 55/6/1
f 57/2/1 54/2/1 53/2/1
f 58/2/1 54/2/1 57/2/1
f 59/2/1 56/2/1 55/2/1
f 60/2/1 56/2/1 59/2/1
f 65/3/1 62/3/1 61/3/1
f 66/3/1 62/3/1 65/3/1
f 67/3/1 64/3/1 63/3/1
f 68/3/1 64/3/1 67/3/1
f 69/7/1 66/7/1 65/7/1
f 70/7/1 66/7/1 69/7/1
f 71/7/1 68/7/1 67/7/1
f 72/7/1 68/7/1 71/7/1
f 84/6/1 74/6/1 73/6/1
f 85/1/1 75/1/1 74/1/1
f 85/6/1 74/6/1 84/6/1
f 86/1/1 75/1/1 85/1/1
f 87/5/1 83/5/1 82/5/1
f 88/5/1 77/5/1 76/5/1
f 89/5/1 77/5/1 88/5/1
f 90/5/1 79/5/1 78/5/1
f 91/5/1 79/5/1 90/5/1
f 92/5/1 81/5/1 80/5/1
f 93/5/1 81/5/1 92/5/1
f 94/5/1 87/5/1 82/5/1
f 95/5/1 87/5/1 94/5/1
f 102/7/1 97/7/1 96/7/1
f 103/7/1 97/7/1 102/7/1
f 104/7/1 99/7/1 98/7/1
f 105/7/1 99/7/1 104/7/1
f 106/7/1 101/7/1 100/7/1
f 107/7/1 101/7/1 106/7/1
f 110/2/1 109/2/1 108/2/1
f 111/2/1 109/2/1 110/2/1
f 112/2/2 113/2/2 114/2/2
f 114/2/2 113/2/2 115/2/2
f 116/7/2 117/7/2 122/7/2
f 122/7/2 117/7/2 123/7/2
f 118/7/2 119/7/2 124/7/2
f 124/7/2 119/7/2 125/7/2
f 120/7/2 121/7/2 126/7/2
f 126/7/2 121/7/2 127/7/2
f 128/3/2 129/3/2 132/3/2
f 132/3/2 129/3/2 133/3/2
f 130/3/2 131/3/2 134/3/2
f 134/3/2 131/3/2 135/3/2
f 132/7/2 133/7/2 136/7/2
f 136/7/2 133/7/2 137/7/2
f 134/7/2 135/7/2 138/7/2
f 138/7/2 135/7/2 139/7/2
f 140/6/2 141/6/2 151/6/2
f 141/1/2 142/1/2 152/1/2
f 151/6/2 141/6/2 152/6/2
f 152/1/2 142/1/2 153/1/2
f 149/5/2 150/5/2 154/5/2
f 143/5/2 144/5/2 155/5/2
f 155/5/2 144/5/2 156/5/2
f 145/5/2 146/5/2 157/5/2
f 157/5/2 146/5/2 158/5/2
f 147/5/2 148/5/2 159/5/2
f 159/5/2 148/5/2 160/5/2
f 149/5/2 154/5/2 161/5/2
f 161/5/2 154/5/2 162/5/2
f 163/6/2 164/6/2 165/6/2
f 165/6/2 164/6/2 166/6/2
f 166/6/2 164/6/2 167/6/2
f 167/6/2 164/6/2 168/6/2
f 165/2/2 166/2/2 169/2/2
f 169/2/2 166/2/2 170/2/2
f 167/2/2 168/2/2 171/2/2
f 171/2/2 168/2/2 172/2/2
f 173/6/2 174/6/2 176/6/2
f 174/1/2 175/1/2 177/1/2
f 176/6/2 174/6/2 177/6/2
f 177/1/2 175/1/2 178/1/2
f 179/6/2 180/6/2 182/6/2
f 180/1/2 181/1/2 183/1/2
f 182/6/2 180/6/2 183/6/2
f 183/1/2 181/1/2 184/1/2
f 185/3/2 186/3/2 189/3/2
f 189/3/2 186/3/2 190/3/2
f 187/3/2 188/3/2 191/3/2
f 191/3/2 188/3/2 192/3/2
f 189/7/2 190/7/2 193/7/2
f 193/7/2 190/7/2 194/7/2
f 191/7/2 192/7/2 195/7/2
f 195/7/2 192/7/2 196/7/2
f 197/5/2 198/5/2 205/5/2
f 205/5/2 198/5/2 206/5/2
f 199/5/2 200/5/2 207/5/2
f 207/5/2 200/5/2 208/5/2
f 201/5/2 202/5/2 209/5/2
f 209/5/2 202/5/2 210/5/2
f 203/5/2 204/5/2 211/5/2
f 211/5/2 204/5/2 212/5/2
f 213/6/2 214/6/2 215/6/2
f 215/6/2 214/6/2 216/6/2
f 215/2/2 216/2/2 217/2/2
f 217/2/2 216/2/2 218/2/2
f 219/4/2 220/4/2 221/4/2
f 221/4/2 220/4/2 222/4/2
f 225/4/3 224/4/3 223/4/3
f 226/4/3 224/4/3 225/4/3
f 230/6/3 228/6/3 227/6/3
f 231/2/3 229/2/3 228/2/3
f 231/6/3 228/6/3 230/6/3
f 232/2/3 229/2/3 231/2/3
f 236/6/3 234/6/3 233/6/3
f 237/2/3 235/2/3 234/2/3
f 237/6/3 234/6/3 236/6/3
f 238/2/3 235/2/3 237/2/3
f 242/3/3 240/3/3 239/3/3
f 243/7/3 241/7/3 240/7/3
f 243/3/3 240/3/3 242/3/3
f 244/7/3 241/7/3 243/7/3
f 247/6/3 246/6/3 245/6/3
f 248/6/3 246/6/3 247/6/3
f 252/6/3 246/6/3 248/6/3
f 253/6/3 246/6/3 252/6/3
f 254/3/3 250/3/3 249/3/3
f 255/7/3 251/7/3 250/7/3
f 255/3/3 250/3/3 254/3/3
f 256/7/3 251/7/3 255/7/3
f 260/5/3 258/5/3 257/5/3
f 260/5/3 259/5/3 258/5/3
f 261/5/3 259/5/3 260/5/3
f 264/5/3 263/5/3 262/5/3
f 265/5/3 263/5/3 264/5/3
f 266/5/3 263/5/3 265/5/3
f 270/5/3 268/5/3 267/5/3
f 271/5/3 270/5/3 269/5/3
f 272/5/3 268/5/3 270/5/3
f 272/5/3 270/5/3 271/5/3
f 275/5/3 274/5/3 273/5/3
f 276/5/3 274/5/3 275/5/3
f 277/5/3 274/5/3 276/5/3
f 278/5/3 274/5/3 277/5/3
f 282/5/3 280/5/3 279/5/3
f 283/5/3 282/5/3 281/5/3
f 284/5/3 280/5/3 282/5/3
f 284/5/3 282/5/3 283/5/3
f 287/5/3 286/5/3 285/5/3
f 288/5/3 286/5/3 287/5/3
f 289/5/3 286/5/3 288/5/3
f 290/5/3 286/5/3 289/5/3
f 294/3/3 292/3/3 291/3/3
f 295/7/3 293/7/3 292/7/3
f 295/3/3 292/3/3 294/3/3
f 296/7/3 293/7/3 295/7/3
f 300/3/3 298/3/3 297/3/3
f 301/7/3 299/7/3 298/7/3
f 301/3/3 298/3/3 300/3/3
f 302/7/3 299/7/3 301/7/3
f 306/5/3 304/5/3 303/5/3
f 307/5/3 306/5/3 305/5/3
f 308/5/3 304/5/3 306/5/3
f 308/5/3 306/5/3 307/5/3
f 311/5/3 310/5/3 309/5/3
f 312/5/3 310/5/3 311/5/3
f 313/5/3 310/5/3 312/5/3
f 314/5/3 310/5/3 313/5/3
f 317/2/3 316/2/3 315/2/3
f 318/2/3 316/2/3 317/2/3
f 321/2/3 320/2/3 319/2/3
f 322/2/3 320/2/3 321/2/3
f 323/2/4 324/2/4 325/2/4
f 325/2/4 324/2/4 326/2/4
f 327/2/4 328/2/4 329/2/4
f 329/2/4 328/2/4 330/2/4
f 331/2/4 332/2/4 333/2/4
f 333/2/4 332/2/4 334/2/4
f 335/2/4 336/2/4 337/2/4
f 337/2/4 336/2/4 338/2/4
f 339/3/4 340/3/4 344/3/4
f 340/7/4 341/7/4 345/7/4
f 344/3/4 340/3/4 345/3/4
f 345/7/4 341/7/4 346/7/4
f 342/1/4 343/1/4 347/1/4
f 347/1/4 343/1/4 348/1/4
f 348/1/4 349/1/4 354/1/4
f 354/1/4 349/1/4 355/1/4
f 353/1/4 354/1/4 356/1/4
f 356/1/4 354/1/4 357/1/4
f 350/3/4 351/3/4 358/3/4
f 351/7/4 352/7/4 359/7/4
f 358/3/4 351/3/4 359/3/4
f 359/7/4 352/7/4 360/7/4
f 361/5/4 362/5/4 364/5/4
f 363/5/4 364/5/4 365/5/4
f 364/5/4 362/5/4 366/5/4
f 365/5/4 364/5/4 366/5/4
f 367/5/4 368/5/4 369/5/4
f 369/5/4 368/5/4 370/5/4
f 370/5/4 368/5/4 371/5/4
f 371/5/4 368/5/4 372/5/4
f 373/5/4 374/5/4 376/5/4
f 375/5/4 376/5/4 377/5/4
f 376/5/4 374/5/4 378/5/4
f 377/5/4 376/5/4 378/5/4
f 379/5/4 380/5/4 381/5/4
f 381/5/4 380/5/4 382/5/4
f 382/5/4 380/5/4 383/5/4
f 383/5/4 380/5/4 384/5/4
f 385/5/4 386/5/4 388/5/4
f 387/5/4 388/5/4 389/5/4
f 388/5/4 386/5/4 390/5/4
f 389/5/4 388/5/4 390/5/4
f 391/5/4 392/5/4 393/5/4
f 393/5/4 392/5/4 394/5/4
f 394/5/4 392/5/4 395/5/4
f 395/5/4 392/5/4 396/5/4
f 397/3/4 398/3/4 402/3/4
f 398/7/4 399/7/4 403/7/4
f 402/3/4 398/3/4 403/3/4
f 403/7/4 399/7/4 404/7/4
f 400/5/4 401/5/4 405/5/4
f 405/5/4 401/5/4 406/5/4
f 407/3/4 408/3/4 412/3/4
f 408/7/4 409/7/4 413/7/4
f 412/3/4 408/3/4 413/3/4
f 413/7/4 409/7/4 414/7/4
f 410/5/4 411/5/4 415/5/4
f 415/5/4 411/5/4 416/5/4
f 417/6/4 418/6/4 420/6/4
f 418/2/4 419/2/4 421/2/4
f 420/6/4 418/6/4 421/6/4
f 421/2/4 419/2/4 422/2/4
f 423/6/4 424/6/4 426/6/4
f 424/2/4 425/2/4 427/2/4
f 426/6/4 424/6/4 427/6/4
f 427/2/4 425/2/4 428/2/4
f 429/4/4 430/4/4 431/4/4
f 431/4/4 430/4/4 432/4/4
f 435/4/5 434/4/5 433/4/5
f 436/4/5 434/4/5 435/4/5
f 441/6/5 438/6/5 437/6/5
f 442/6/5 438/6/5 441/6/5
f 443/6/5 440/6/5 439/6/5
f 444/6/5 440/6/5 443/6/5
f 445/6/5 441/6/5 437/6/5
f 446/6/5 438/6/5 442/6/5
f 447/6/5 443/6/5 439/6/5
f 448/6/5 440/6/5 444/6/5
f 449/6/5 445/6/5 437/6/5
f 449/6/5 446/6/5 445/6/5
f 450/6/5 438/6/5 446/6/5
f 450/6/5 446/6/5 449/6/5
f 451/6/5 448/6/5 447/6/5
f 451/6/5 447/6/5 439/6/5
f 452/6/5 440/6/5 448/6/5
f 452/6/5 448/6/5 451/6/5
f 453/6/5 449/6/5 437/6/5
f 454/6/5 438/6/5 450/6/5
f 455/6/5 451/6/5 439/6/5
f 456/6/5 440/6/5 452/6/5
f 457/6/5 453/6/5 437/6/5
f 457/6/5 454/6/5 453/6/5
f 458/6/5 438/6/5 454/6/5
f 458/6/5 454/6/5 457/6/5
f 459/6/5 456/6/5 455/6/5
f 459/6/5 455/6/5 439/6/5
f 460/6/5 440/6/5 456/6/5
f 460/6/5 456/6/5 459/6/5
f 465/6/5 462/6/5 461/6/5
f 465/6/5 464/6/5 463/6/5
f 465/6/5 463/6/5 462/6/5
f 466/6/5 464/6/5 465/6/5
f 467/1/5 466/1/5 465/1/5
f 468/1/5 466/1/5 467/1/5
f 469/4/6 470/4/6 471/4/6
f 471/4/6 470/4/6 472/4/6
f 472/4/6 470/4/6 473/4/6
f 473/4/6 470/4/6 474/4/6
f 469/4/6 471/4/6 475/4/6
f 472/4/6 473/4/6 476/4/6
f 476/4/6 473/4/6 477/4/6
f 474/4/6 470/4/6 478/4/6
f 476/4/6 477/4/6 479/4/6
f 477/4/6 478/4/6 479/4/6
f 469/4/6 475/4/6 479/4/6
f 475/4/6 476/4/6 479/4/6
f 479/4/6 478/4/6 480/4/6
f 480/4/6 478/4/6 481/4/6
f 478/4/6 470/4/6 482/4/6
f 481/4/6 478/4/6 482/4/6
f 469/4/6 479/4/6 483/4/6
f 480/4/6 481/4/6 484/4/6
f 484/4/6 481/4/6 485/4/6
f 482/4/6 470/4/6 486/4/6
f 469/4/6 483/4/6 487/4/6
f 485/4/6 486/4/6 487/4/6
f 484/4/6 485/4/6 487/4/6
f 483/4/6 484/4/6 487/4/6
f 486/4/6 470/4/6 488/4/6
f 487/4/6 486/4/6 488/4/6
f 489/6/6 490/6/6 497/6/6
f 491/6/6 492/6/6 498/6/6
f 493/6/6 494/6/6 499/6/6
f 495/6/6 496/6/6 500/6/6
f 489/6/6 497/6/6 501/6/6
f 498/6/6 492/6/6 502/6/6
f 493/6/6 499/6/6 503/6/6
f 500/6/6 496/6/6 504/6/6
f 501/6/6 502/6/6 505/6/6
f 489/6/6 501/6/6 505/6/6
f 502/6/6 492/6/6 506/6/6
f 505/6/6 502/6/6 506/6/6
f 503/6/6 504/6/6 507/6/6
f 493/6/6 503/6/6 507/6/6
f 504/6/6 496/6/6 508/6/6
f 507/6/6 504/6/6 508/6/6
f 506/6/6 492/6/6 510/6/6
f 493/6/6 507/6/6 511/6/6
f 509/6/6 510/6/6 513/6/6
f 510/6/6 492/6/6 514/6/6
f 513/6/6 510/6/6 514/6/6
f 511/6/6 512/6/6 515/6/6
f 493/6/6 511/6/6 515/6/6
f 515/6/6 512/6/6 516/6/6
f 514/6/6 492/6/6 518/6/6
f 493/6/6 515/6/6 519/6/6
f 517/6/6 518/6/6 521/6/6
f 518/6/6 492/6/6 522/6/6
f 521/6/6 518/6/6 522/6/6
f 519/6/6 520/6/6 523/6/6
f 493/6/6 519/6/6 523/6/6
f 523/6/6 520/6/6 524/6/6
f 522/6/6 492/6/6 526/6/6
f 493/6/6 523/6/6 527/6/6
f 525/6/6 526/6/6 529/6/6
f 526/6/6 492/6/6 530/6/6
f 529/6/6 526/6/6 530/6/6
f 527/6/6 528/6/6 531/6/6
f 493/6/6 527/6/6 531/6/6
f 531/6/6 528/6/6 532/6/6
f 530/6/6 492/6/6 533/6/6
f 533/6/6 492/6/6 534/6/6
f 493/6/6 531/6/6 535/6/6
f 535/6/6 531/6/6 536/6/6
f 537/2/6 538/2/6 541/2/6
f 541/2/6 538/2/6 542/2/6
f 542/2/6 538/2/6 543/2/6
f 543/2/6 538/2/6 544/2/6
f 539/2/6 540/2/6 545/2/6
f 545/2/6 540/2/6 546/2/6
f 546/2/6 540/2/6 547/2/6
f 547/2/6 540/2/6 548/2/6
f 542/6/6 543/6/6 549/6/6
f 549/6/6 543/6/6 550/6/6
f 546/6/6 547/6/6 551/6/6
f 551/6/6 547/6/6 552/6/6
f 549/1/6 550/1/6 553/1/6
f 553/1/6 550/1/6 554/1/6
f 551/1/6 552/1/6 555/1/6
f 555/1/6 552/1/6 556/1/6
f 537/2/6 541/2/6 557/2/6
f 548/2/6 540/2/6 558/2/6
f 537/2/6 557/2/6 559/2/6
f 558/2/6 540/2/6 562/2/6
f 559/7/6 560/7/6 563/7/6
f 537/2/6 559/2/6 563/2/6
f 563/7/6 560/7/6 564/7/6
f 561/7/6 562/7/6 565/7/6
f 562/2/6 540/2/6 566/2/6
f 565/7/6 562/7/6 566/7/6
f 537/2/6 563/2/6 567/2/6
f 566/2/6 540/2/6 570/2/6
f 567/7/6 568/7/6 571/7/6
f 537/2/6 567/2/6 571/2/6
f 571/7/6 568/7/6 572/7/6
f 569/7/6 570/7/6 573/7/6
f 570/2/6 540/2/6 574/2/6
f 573/7/6 570/7/6 574/7/6
f 537/2/6 571/2/6 575/2/6
f 574/2/6 540/2/6 578/2/6
f 575/7/6 576/7/6 579/7/6
f 537/2/6 575/2/6 579/2/6
f 579/7/6 576/7/6 580/7/6
f 577/7/6 578/7/6 581/7/6
f 578/2/6 540/2/6 582/2/6
f 581/7/6 578/7/6 582/7/6
f 537/2/6 579/2/6 583/2/6
f 582/2/6 540/2/6 588/2/6
f 537/2/6 583/2/6 589/2/6
f 583/2/6 584/2/6 589/2/6
f 584/2/6 585/2/6 589/2/6
f 589/2/6 585/2/6 590/2/6
f 586/2/6 587/2/6 591/2/6
f 587/2/6 588/2/6 591/2/6
f 588/2/6 540/2/6 592/2/6
f 591/2/6 588/2/6 592/2/6
f 593/6/6 594/6/6 595/6/6
f 595/6/6 594/6/6 596/6/6
f 595/1/6 596/1/6 597/1/6
f 597/1/6 596/1/6 598/1/6
f 599/5/6 600/5/6 603/5/6
f 603/5/6 600/5/6 604/5/6
f 601/5/6 602/5/6 605/5/6
f 605/5/6 602/5/6 606/5/6
f 607/5/6 608/5/6 611/5/6
f 611/5/6 608/5/6 612/5/6
f 609/5/6 610/5/6 613/5/6
f 613/5/6 610/5/6 614/5/6
f 615/5/6 616/5/6 619/5/6
f 619/5/6 616/5/6 620/5/6
f 617/5/6 618/5/6 621/5/6
f 621/5/6 618/5/6 622/5/6
f 623/5/6 624/5/6 627/5/6
f 627/5/6 624/5/6 628/5/6
f 625/5/6 626/5/6 629/5/6
f 629/5/6 626/5/6 630/5/6
