# MagicaVoxel @ Ephtracy

# group
o 

# material
mtllib iceberg3.mtl
usemtl palette

# normals
vn -1 0 0
vn 1 0 0
vn 0 0 1
vn 0 0 -1
vn 0 -1 0
vn 0 1 0

# texcoords
vt 0.751953 0.5
vt 0.962891 0.5
vt 0.990234 0.5

# verts
v -0.8 0 0.8
v -0.8 0 -0.8
v -0.8 0.2 0.8
v -0.8 0.2 -0.8
v -0.6 0.2 0
v -0.6 0.2 -0.4
v -0.6 0.3 0
v -0.6 0.3 -0.4
v -0.5 0.2 0.3
v -0.5 0.2 0
v -0.5 0.2 -0.4
v -0.5 0.2 -0.5
v -0.5 0.3 0.3
v -0.5 0.3 0.2
v -0.5 0.3 0
v -0.5 0.3 -0.1
v -0.5 0.3 -0.3
v -0.5 0.3 -0.4
v -0.5 0.3 -0.5
v -0.5 0.4 0.2
v -0.5 0.4 0
v -0.5 0.4 -0.1
v -0.5 0.4 -0.3
v -0.4 0.2 0.4
v -0.4 0.2 0.3
v -0.4 0.3 0.4
v -0.4 0.3 0.3
v -0.4 0.3 0.2
v -0.4 0.3 0
v -0.4 0.3 -0.1
v -0.4 0.3 -0.3
v -0.4 0.3 -0.4
v -0.4 0.4 0.3
v -0.4 0.4 0.2
v -0.4 0.4 0
v -0.4 0.4 -0.1
v -0.4 0.4 -0.2
v -0.4 0.4 -0.3
v -0.4 0.4 -0.4
v -0.4 0.5 0.2
v -0.4 0.5 0
v -0.4 0.5 -0.2
v -0.4 0.5 -0.3
v -0.2 0.2 0.5
v -0.2 0.2 0.4
v -0.2 0.2 -0.5
v -0.2 0.2 -0.6
v -0.2 0.3 0.5
v -0.2 0.3 0.4
v -0.2 0.3 -0.4
v -0.2 0.3 -0.5
v -0.2 0.3 -0.6
v -0.2 0.4 -0.4
v -0.2 0.4 -0.5
v -0.1 0.3 0.4
v -0.1 0.3 0.3
v -0.1 0.4 0.4
v -0.1 0.4 0.3
v 0 0.3 0.2
v 0 0.3 0.1
v 0 0.4 0.2
v 0 0.4 0.1
v 0 0.4 -0.3
v 0 0.4 -0.4
v 0 0.5 -0.3
v 0 0.5 -0.4
v 0.1 0.3 0.4
v 0.1 0.3 0.3
v 0.1 0.4 0.4
v 0.1 0.4 0.3
v -0.3 0.3 -0.1
v -0.3 0.3 -0.2
v -0.3 0.4 -0.1
v -0.3 0.4 -0.2
v -0.2 0.3 0.3
v -0.2 0.3 -0.1
v -0.2 0.4 0.3
v -0.2 0.4 0.2
v -0.2 0.4 0
v -0.2 0.4 -0.1
v -0.2 0.4 -0.2
v -0.2 0.4 -0.3
v -0.2 0.5 0.2
v -0.2 0.5 0
v -0.2 0.5 -0.2
v -0.2 0.5 -0.3
v 0 0.2 0.1
v 0 0.2 -0.1
v 0 0.3 0.4
v 0 0.3 0.3
v 0 0.3 0.1
v 0 0.3 -0.1
v 0 0.3 -0.2
v 0 0.3 -0.3
v 0 0.4 0.4
v 0 0.4 0.3
v 0 0.4 -0.2
v 0 0.4 -0.3
v 0.1 0.2 0.2
v 0.1 0.2 0.1
v 0.1 0.3 0.2
v 0.1 0.3 0.1
v 0.1 0.4 0.2
v 0.1 0.4 0.1
v 0.2 0.3 0.4
v 0.2 0.3 0.3
v 0.2 0.4 0.4
v 0.2 0.4 0.3
v 0.2 0.4 -0.3
v 0.2 0.4 -0.4
v 0.2 0.5 -0.3
v 0.2 0.5 -0.4
v 0.3 0.2 0.5
v 0.3 0.2 0.2
v 0.3 0.3 0.5
v 0.3 0.3 0.2
v 0.3 0.3 -0.3
v 0.3 0.3 -0.5
v 0.3 0.4 -0.3
v 0.3 0.4 -0.5
v 0.4 0.2 -0.4
v 0.4 0.2 -0.6
v 0.4 0.3 -0.4
v 0.4 0.3 -0.6
v 0.5 0.2 -0.1
v 0.5 0.2 -0.4
v 0.5 0.3 -0.1
v 0.5 0.3 -0.4
v 0.8 0 0.8
v 0.8 0 -0.8
v 0.8 0.2 0.8
v 0.8 0.2 -0.8
v -0.8 0 0.8
v -0.8 0.2 0.8
v 0.8 0 0.8
v 0.8 0.2 0.8
v -0.2 0.2 0.5
v -0.2 0.3 0.5
v 0.3 0.2 0.5
v 0.3 0.3 0.5
v -0.4 0.2 0.4
v -0.4 0.3 0.4
v -0.2 0.2 0.4
v -0.2 0.3 0.4
v -0.1 0.3 0.4
v -0.1 0.4 0.4
v 0 0.3 0.4
v 0 0.4 0.4
v 0.1 0.3 0.4
v 0.1 0.4 0.4
v 0.2 0.3 0.4
v 0.2 0.4 0.4
v -0.5 0.2 0.3
v -0.5 0.3 0.3
v -0.4 0.2 0.3
v -0.4 0.3 0.3
v -0.4 0.4 0.3
v -0.2 0.3 0.3
v -0.2 0.4 0.3
v -0.5 0.3 0.2
v -0.5 0.4 0.2
v -0.4 0.3 0.2
v -0.4 0.4 0.2
v -0.4 0.5 0.2
v -0.2 0.4 0.2
v -0.2 0.5 0.2
v 0 0.3 0.2
v 0 0.4 0.2
v 0.1 0.3 0.2
v 0.1 0.4 0.2
v -0.6 0.2 0
v -0.6 0.3 0
v -0.5 0.2 0
v -0.5 0.3 0
v -0.5 0.3 -0.1
v -0.5 0.4 -0.1
v -0.4 0.3 -0.1
v -0.4 0.4 -0.1
v 0 0.2 -0.1
v 0 0.3 -0.1
v 0.5 0.2 -0.1
v 0.5 0.3 -0.1
v -0.4 0.4 -0.2
v -0.4 0.5 -0.2
v -0.3 0.3 -0.2
v -0.3 0.4 -0.2
v -0.2 0.4 -0.2
v -0.2 0.5 -0.2
v 0 0.3 -0.2
v 0 0.4 -0.2
v 0 0.3 -0.3
v 0 0.4 -0.3
v 0 0.5 -0.3
v 0.2 0.4 -0.3
v 0.2 0.5 -0.3
v 0.3 0.3 -0.3
v 0.3 0.4 -0.3
v -0.1 0.3 0.3
v -0.1 0.4 0.3
v 0 0.3 0.3
v 0 0.4 0.3
v 0.1 0.3 0.3
v 0.1 0.4 0.3
v 0.2 0.3 0.3
v 0.2 0.4 0.3
v 0.1 0.2 0.2
v 0.1 0.3 0.2
v 0.3 0.2 0.2
v 0.3 0.3 0.2
v 0 0.2 0.1
v 0 0.3 0.1
v 0 0.4 0.1
v 0.1 0.2 0.1
v 0.1 0.3 0.1
v 0.1 0.4 0.1
v -0.5 0.3 0
v -0.5 0.4 0
v -0.4 0.3 0
v -0.4 0.4 0
v -0.4 0.5 0
v -0.2 0.4 0
v -0.2 0.5 0
v -0.3 0.3 -0.1
v -0.3 0.4 -0.1
v -0.2 0.3 -0.1
v -0.2 0.4 -0.1
v -0.5 0.3 -0.3
v -0.5 0.4 -0.3
v -0.4 0.3 -0.3
v -0.4 0.4 -0.3
v -0.4 0.5 -0.3
v -0.2 0.4 -0.3
v -0.2 0.5 -0.3
v -0.6 0.2 -0.4
v -0.6 0.3 -0.4
v -0.5 0.2 -0.4
v -0.5 0.3 -0.4
v -0.4 0.3 -0.4
v -0.4 0.4 -0.4
v -0.2 0.3 -0.4
v -0.2 0.4 -0.4
v 0 0.4 -0.4
v 0 0.5 -0.4
v 0.2 0.4 -0.4
v 0.2 0.5 -0.4
v 0.4 0.2 -0.4
v 0.4 0.3 -0.4
v 0.5 0.2 -0.4
v 0.5 0.3 -0.4
v -0.5 0.2 -0.5
v -0.5 0.3 -0.5
v -0.2 0.2 -0.5
v -0.2 0.3 -0.5
v -0.2 0.4 -0.5
v 0.3 0.3 -0.5
v 0.3 0.4 -0.5
v -0.2 0.2 -0.6
v -0.2 0.3 -0.6
v 0.4 0.2 -0.6
v 0.4 0.3 -0.6
v -0.8 0 -0.8
v -0.8 0.2 -0.8
v 0.8 0 -0.8
v 0.8 0.2 -0.8
v -0.8 0 0.8
v 0.8 0 0.8
v -0.8 0 -0.8
v 0.8 0 -0.8
v -0.8 0.2 0.8
v 0.8 0.2 0.8
v -0.2 0.2 0.5
v 0.3 0.2 0.5
v -0.4 0.2 0.4
v -0.2 0.2 0.4
v -0.5 0.2 0.3
v -0.4 0.2 0.3
v 0.1 0.2 0.2
v 0.3 0.2 0.2
v 0 0.2 0.1
v 0.1 0.2 0.1
v -0.6 0.2 0
v -0.5 0.2 0
v 0 0.2 -0.1
v 0.5 0.2 -0.1
v -0.6 0.2 -0.4
v -0.5 0.2 -0.4
v 0.4 0.2 -0.4
v 0.5 0.2 -0.4
v -0.5 0.2 -0.5
v -0.2 0.2 -0.5
v -0.2 0.2 -0.6
v 0.4 0.2 -0.6
v -0.8 0.2 -0.8
v 0.8 0.2 -0.8
v -0.2 0.3 0.5
v 0.3 0.3 0.5
v -0.4 0.3 0.4
v -0.2 0.3 0.4
v -0.1 0.3 0.4
v 0 0.3 0.4
v 0.1 0.3 0.4
v 0.2 0.3 0.4
v -0.5 0.3 0.3
v -0.4 0.3 0.3
v -0.2 0.3 0.3
v -0.1 0.3 0.3
v 0 0.3 0.3
v 0.1 0.3 0.3
v 0.2 0.3 0.3
v -0.5 0.3 0.2
v -0.4 0.3 0.2
v 0 0.3 0.2
v 0.1 0.3 0.2
v 0.3 0.3 0.2
v 0 0.3 0.1
v -0.6 0.3 0
v -0.5 0.3 0
v -0.4 0.3 0
v -0.5 0.3 -0.1
v -0.4 0.3 -0.1
v -0.3 0.3 -0.1
v -0.2 0.3 -0.1
v 0 0.3 -0.1
v 0.5 0.3 -0.1
v -0.3 0.3 -0.2
v 0 0.3 -0.2
v -0.5 0.3 -0.3
v -0.4 0.3 -0.3
v 0 0.3 -0.3
v 0.3 0.3 -0.3
v -0.6 0.3 -0.4
v -0.5 0.3 -0.4
v -0.4 0.3 -0.4
v -0.2 0.3 -0.4
v 0.4 0.3 -0.4
v 0.5 0.3 -0.4
v -0.5 0.3 -0.5
v -0.2 0.3 -0.5
v 0.3 0.3 -0.5
v -0.2 0.3 -0.6
v 0.4 0.3 -0.6
v -0.1 0.4 0.4
v 0 0.4 0.4
v 0.1 0.4 0.4
v 0.2 0.4 0.4
v -0.4 0.4 0.3
v -0.2 0.4 0.3
v -0.1 0.4 0.3
v 0 0.4 0.3
v 0.1 0.4 0.3
v 0.2 0.4 0.3
v -0.5 0.4 0.2
v -0.4 0.4 0.2
v -0.2 0.4 0.2
v 0 0.4 0.2
v 0.1 0.4 0.2
v 0 0.4 0.1
v 0.1 0.4 0.1
v -0.5 0.4 0
v -0.4 0.4 0
v -0.2 0.4 0
v -0.5 0.4 -0.1
v -0.4 0.4 -0.1
v -0.3 0.4 -0.1
v -0.2 0.4 -0.1
v -0.4 0.4 -0.2
v -0.3 0.4 -0.2
v -0.2 0.4 -0.2
v 0 0.4 -0.2
v -0.5 0.4 -0.3
v -0.4 0.4 -0.3
v -0.2 0.4 -0.3
v 0 0.4 -0.3
v 0.2 0.4 -0.3
v 0.3 0.4 -0.3
v -0.4 0.4 -0.4
v -0.2 0.4 -0.4
v 0 0.4 -0.4
v 0.2 0.4 -0.4
v -0.2 0.4 -0.5
v 0.3 0.4 -0.5
v -0.4 0.5 0.2
v -0.2 0.5 0.2
v -0.4 0.5 0
v -0.2 0.5 0
v -0.4 0.5 -0.2
v -0.2 0.5 -0.2
v -0.4 0.5 -0.3
v -0.2 0.5 -0.3
v 0 0.5 -0.3
v 0.2 0.5 -0.3
v 0 0.5 -0.4
v 0.2 0.5 -0.4

# faces
f 3/1/1 2/1/1 1/1/1
f 4/1/1 2/1/1 3/1/1
f 7/2/1 6/2/1 5/2/1
f 8/2/1 6/2/1 7/2/1
f 13/2/1 10/2/1 9/2/1
f 14/2/1 10/2/1 13/2/1
f 15/2/1 10/2/1 14/2/1
f 18/2/1 12/2/1 11/2/1
f 19/2/1 12/2/1 18/2/1
f 20/2/1 15/2/1 14/2/1
f 21/2/1 15/2/1 20/2/1
f 22/2/1 17/2/1 16/2/1
f 23/2/1 17/2/1 22/2/1
f 26/2/1 25/2/1 24/2/1
f 27/2/1 25/2/1 26/2/1
f 33/2/1 28/2/1 27/2/1
f 34/2/1 28/2/1 33/2/1
f 35/2/1 30/2/1 29/2/1
f 36/2/1 30/2/1 35/2/1
f 38/2/1 32/2/1 31/2/1
f 39/2/1 32/2/1 38/2/1
f 40/2/1 35/2/1 34/2/1
f 41/2/1 35/2/1 40/2/1
f 42/2/1 38/2/1 37/2/1
f 43/2/1 38/2/1 42/2/1
f 48/2/1 45/2/1 44/2/1
f 49/2/1 45/2/1 48/2/1
f 51/2/1 47/2/1 46/2/1
f 52/2/1 47/2/1 51/2/1
f 53/2/1 51/2/1 50/2/1
f 54/2/1 51/2/1 53/2/1
f 57/3/1 56/3/1 55/3/1
f 58/3/1 56/3/1 57/3/1
f 61/3/1 60/3/1 59/3/1
f 62/3/1 60/3/1 61/3/1
f 65/2/1 64/2/1 63/2/1
f 66/2/1 64/2/1 65/2/1
f 69/3/1 68/3/1 67/3/1
f 70/3/1 68/3/1 69/3/1
f 71/2/2 72/2/2 73/2/2
f 73/2/2 72/2/2 74/2/2
f 75/2/2 76/2/2 77/2/2
f 77/2/2 76/2/2 78/2/2
f 78/2/2 76/2/2 79/2/2
f 79/2/2 76/2/2 80/2/2
f 78/2/2 79/2/2 83/2/2
f 83/2/2 79/2/2 84/2/2
f 81/2/2 82/2/2 85/2/2
f 85/2/2 82/2/2 86/2/2
f 87/2/2 88/2/2 91/2/2
f 91/2/2 88/2/2 92/2/2
f 89/3/2 90/3/2 95/3/2
f 95/3/2 90/3/2 96/3/2
f 93/2/2 94/2/2 97/2/2
f 97/2/2 94/2/2 98/2/2
f 99/2/2 100/2/2 101/2/2
f 101/2/2 100/2/2 102/2/2
f 101/3/2 102/3/2 103/3/2
f 103/3/2 102/3/2 104/3/2
f 105/3/2 106/3/2 107/3/2
f 107/3/2 106/3/2 108/3/2
f 109/2/2 110/2/2 111/2/2
f 111/2/2 110/2/2 112/2/2
f 113/2/2 114/2/2 115/2/2
f 115/2/2 114/2/2 116/2/2
f 117/2/2 118/2/2 119/2/2
f 119/2/2 118/2/2 120/2/2
f 121/2/2 122/2/2 123/2/2
f 123/2/2 122/2/2 124/2/2
f 125/2/2 126/2/2 127/2/2
f 127/2/2 126/2/2 128/2/2
f 129/1/2 130/1/2 131/1/2
f 131/1/2 130/1/2 132/1/2
f 135/1/3 134/1/3 133/1/3
f 136/1/3 134/1/3 135/1/3
f 139/2/3 138/2/3 137/2/3
f 140/2/3 138/2/3 139/2/3
f 143/2/3 142/2/3 141/2/3
f 144/2/3 142/2/3 143/2/3
f 147/3/3 146/3/3 145/3/3
f 148/3/3 146/3/3 147/3/3
f 151/3/3 150/3/3 149/3/3
f 152/3/3 150/3/3 151/3/3
f 155/2/3 154/2/3 153/2/3
f 156/2/3 154/2/3 155/2/3
f 158/2/3 157/2/3 156/2/3
f 159/2/3 157/2/3 158/2/3
f 162/2/3 161/2/3 160/2/3
f 163/2/3 161/2/3 162/2/3
f 165/2/3 164/2/3 163/2/3
f 166/2/3 164/2/3 165/2/3
f 169/3/3 168/3/3 167/3/3
f 170/3/3 168/3/3 169/3/3
f 173/2/3 172/2/3 171/2/3
f 174/2/3 172/2/3 173/2/3
f 177/2/3 176/2/3 175/2/3
f 178/2/3 176/2/3 177/2/3
f 181/2/3 180/2/3 179/2/3
f 182/2/3 180/2/3 181/2/3
f 186/2/3 184/2/3 183/2/3
f 187/2/3 184/2/3 186/2/3
f 187/2/3 186/2/3 185/2/3
f 188/2/3 184/2/3 187/2/3
f 189/2/3 187/2/3 185/2/3
f 190/2/3 187/2/3 189/2/3
f 194/2/3 192/2/3 191/2/3
f 194/2/3 193/2/3 192/2/3
f 195/2/3 193/2/3 194/2/3
f 196/2/3 194/2/3 191/2/3
f 197/2/3 194/2/3 196/2/3
f 198/3/4 199/3/4 200/3/4
f 200/3/4 199/3/4 201/3/4
f 202/3/4 203/3/4 204/3/4
f 204/3/4 203/3/4 205/3/4
f 206/2/4 207/2/4 208/2/4
f 208/2/4 207/2/4 209/2/4
f 210/2/4 211/2/4 213/2/4
f 211/3/4 212/3/4 214/3/4
f 213/2/4 211/2/4 214/2/4
f 214/3/4 212/3/4 215/3/4
f 216/2/4 217/2/4 218/2/4
f 218/2/4 217/2/4 219/2/4
f 219/2/4 220/2/4 221/2/4
f 221/2/4 220/2/4 222/2/4
f 223/2/4 224/2/4 225/2/4
f 225/2/4 224/2/4 226/2/4
f 227/2/4 228/2/4 229/2/4
f 229/2/4 228/2/4 230/2/4
f 230/2/4 231/2/4 232/2/4
f 232/2/4 231/2/4 233/2/4
f 234/2/4 235/2/4 236/2/4
f 236/2/4 235/2/4 237/2/4
f 238/2/4 239/2/4 240/2/4
f 240/2/4 239/2/4 241/2/4
f 242/2/4 243/2/4 244/2/4
f 244/2/4 243/2/4 245/2/4
f 246/2/4 247/2/4 248/2/4
f 248/2/4 247/2/4 249/2/4
f 250/2/4 251/2/4 252/2/4
f 252/2/4 251/2/4 253/2/4
f 253/2/4 254/2/4 255/2/4
f 255/2/4 254/2/4 256/2/4
f 257/2/4 258/2/4 259/2/4
f 259/2/4 258/2/4 260/2/4
f 261/1/4 262/1/4 263/1/4
f 263/1/4 262/1/4 264/1/4
f 267/1/5 266/1/5 265/1/5
f 268/1/5 266/1/5 267/1/5
f 269/1/6 270/1/6 271/1/6
f 271/1/6 270/1/6 272/1/6
f 269/1/6 271/1/6 273/1/6
f 273/1/6 271/1/6 274/1/6
f 269/1/6 273/1/6 275/1/6
f 275/1/6 273/1/6 276/1/6
f 272/1/6 270/1/6 278/1/6
f 277/1/6 278/1/6 280/1/6
f 269/1/6 275/1/6 281/1/6
f 281/1/6 275/1/6 282/1/6
f 279/1/6 280/1/6 283/1/6
f 278/1/6 270/1/6 284/1/6
f 283/1/6 280/1/6 284/1/6
f 280/1/6 278/1/6 284/1/6
f 269/1/6 281/1/6 285/1/6
f 284/1/6 270/1/6 288/1/6
f 285/1/6 286/1/6 289/1/6
f 289/1/6 290/1/6 291/1/6
f 287/1/6 288/1/6 292/1/6
f 289/1/6 291/1/6 293/1/6
f 291/1/6 292/1/6 293/1/6
f 269/1/6 285/1/6 293/1/6
f 285/1/6 289/1/6 293/1/6
f 292/1/6 288/1/6 294/1/6
f 293/1/6 292/1/6 294/1/6
f 288/1/6 270/1/6 294/1/6
f 295/2/6 296/2/6 298/2/6
f 298/2/6 296/2/6 299/2/6
f 299/2/6 296/2/6 300/2/6
f 300/2/6 296/2/6 301/2/6
f 301/2/6 296/2/6 302/2/6
f 297/2/6 298/2/6 304/2/6
f 298/2/6 299/2/6 304/2/6
f 304/2/6 299/2/6 305/2/6
f 305/2/6 299/2/6 306/2/6
f 300/2/6 301/2/6 307/2/6
f 307/2/6 301/2/6 308/2/6
f 302/2/6 296/2/6 309/2/6
f 303/2/6 304/2/6 310/2/6
f 310/2/6 304/2/6 311/2/6
f 305/2/6 306/2/6 312/2/6
f 307/2/6 308/2/6 312/2/6
f 308/2/6 309/2/6 312/2/6
f 306/2/6 307/2/6 312/2/6
f 312/2/6 309/2/6 313/2/6
f 309/2/6 296/2/6 314/2/6
f 313/2/6 309/2/6 314/2/6
f 305/2/6 312/2/6 315/2/6
f 316/2/6 317/2/6 319/2/6
f 317/2/6 318/2/6 319/2/6
f 319/2/6 318/2/6 320/2/6
f 305/2/6 315/2/6 322/2/6
f 322/2/6 315/2/6 323/2/6
f 322/2/6 323/2/6 325/2/6
f 323/2/6 324/2/6 325/2/6
f 321/2/6 322/2/6 325/2/6
f 325/2/6 324/2/6 326/2/6
f 316/2/6 319/2/6 327/2/6
f 326/2/6 324/2/6 329/2/6
f 329/2/6 324/2/6 330/2/6
f 327/2/6 328/2/6 331/2/6
f 316/2/6 327/2/6 331/2/6
f 331/2/6 328/2/6 332/2/6
f 332/2/6 328/2/6 333/2/6
f 330/2/6 324/2/6 335/2/6
f 335/2/6 324/2/6 336/2/6
f 333/2/6 334/2/6 337/2/6
f 332/2/6 333/2/6 337/2/6
f 337/2/6 334/2/6 338/2/6
f 330/2/6 335/2/6 339/2/6
f 338/2/6 339/2/6 340/2/6
f 339/2/6 335/2/6 341/2/6
f 340/2/6 339/2/6 341/2/6
f 342/3/6 343/3/6 348/3/6
f 348/3/6 343/3/6 349/3/6
f 344/3/6 345/3/6 350/3/6
f 350/3/6 345/3/6 351/3/6
f 346/2/6 347/2/6 353/2/6
f 353/2/6 347/2/6 354/2/6
f 355/3/6 356/3/6 357/3/6
f 357/3/6 356/3/6 358/3/6
f 352/2/6 353/2/6 359/2/6
f 359/2/6 353/2/6 360/2/6
f 360/2/6 361/2/6 363/2/6
f 363/2/6 361/2/6 364/2/6
f 364/2/6 361/2/6 365/2/6
f 362/2/6 363/2/6 366/2/6
f 363/2/6 364/2/6 366/2/6
f 366/2/6 364/2/6 367/2/6
f 362/2/6 366/2/6 370/2/6
f 370/2/6 366/2/6 371/2/6
f 368/2/6 369/2/6 372/2/6
f 372/2/6 369/2/6 373/2/6
f 371/2/6 372/2/6 376/2/6
f 372/2/6 373/2/6 376/2/6
f 376/2/6 373/2/6 377/2/6
f 377/2/6 373/2/6 378/2/6
f 374/2/6 375/2/6 379/2/6
f 377/2/6 378/2/6 380/2/6
f 378/2/6 379/2/6 380/2/6
f 379/2/6 375/2/6 381/2/6
f 380/2/6 379/2/6 381/2/6
f 382/2/6 383/2/6 384/2/6
f 384/2/6 383/2/6 385/2/6
f 386/2/6 387/2/6 388/2/6
f 388/2/6 387/2/6 389/2/6
f 390/2/6 391/2/6 392/2/6
f 392/2/6 391/2/6 393/2/6
