# Created by Kenney (www.kenney.nl)

mtllib BoosterIcon.mtl

v 2 4 2
v 2 4 -2
v -2 4 2
v -2 4 -2
v -2 5 -2
v -2 5 2
v 2 5 -2
v 2 5 2
v 1 4 2
v 1 4 -2
v 1 5 -2
v 1 5 2
v 4 -7 2.5
v 4 -7 -2.5
v 2 -7 2.5
v 2 -7 -2.5
v 2 4 -2.5
v 2 4 2.5
v 4 4 -2.5
v 4 4 2.5
v 2 3 2.5
v 2 3 -2.5
v -4 3 2.5
v -4 3 -2.5
v -4 4 -2.5
v -4 4 2.5
v 2 2 2.5
v 2 2 -2.5
v 1 2 2.5
v 1 2 -2.5
v 1 3 -2.5
v 1 3 2.5
v -1 2 2.5
v -1 2 -2.5
v -4 2 2.5
v -4 2 -2.5
v -1 3 -2.5
v -1 3 2.5
v -2 -7 2.5
v -2 -7 -2.5
v -4 -7 2.5
v -4 -7 -2.5
v -2 2 -2.5
v -2 2 2.5
v 2 -4 2.5
v 2 -4 -2.5
v 1 -4 2.5
v 1 -4 -2.5
v 1 0 -2.5
v 1 0 2.5
v 2 0 -2.5
v 2 0 2.5
v -1 -4 2.5
v -1 -4 -2.5
v -2 -4 2.5
v -2 -4 -2.5
v -2 0 -2.5
v -2 0 2.5
v -1 0 -2.5
v -1 0 2.5
v -1 -1 -2.5
v -1 -1 2.5
v 1 -1 -2.5
v 1 -1 2.5
v -2 -6 -2.5
v -2 -6 2.5
v 2 -6 -2.5
v 2 -6 2.5
v 1 -1 2
v 1 -1 -2
v -1 -1 2
v -1 -1 -2
v -1 3 -2
v -1 3 2
v 1 3 -2
v 1 3 2
v 2 0 2
v 2 0 -2
v 1 0 2
v 1 0 -2
v 1 2 -2
v 1 2 2
v 2 2 -2
v 2 2 2
v -1 0 2
v -1 0 -2
v -2 0 2
v -2 0 -2
v -2 2 -2
v -2 2 2
v -1 2 -2
v -1 2 2
v 2 -6 2
v 2 -6 -2
v -2 -6 2
v -2 -6 -2
v -2 -4 -2
v -2 -4 2
v 2 -4 -2
v 2 -4 2

vn 0 -1 0
vn -1 0 0
vn 0 0 -1
vn 0 0 1
vn 1 0 0
vn 0 1 0

vt 0 0

usemtl color7

f 3/1/1 2/1/1 1/1/1
f 2/1/1 3/1/1 4/1/1
f 3/1/2 5/1/2 4/1/2
f 5/1/2 3/1/2 6/1/2
f 5/1/3 2/1/3 4/1/3
f 2/1/3 5/1/3 7/1/3
f 8/1/4 3/1/4 1/1/4
f 3/1/4 8/1/4 6/1/4
f 8/1/5 2/1/5 7/1/5
f 2/1/5 8/1/5 1/1/5
f 5/1/6 8/1/6 7/1/6
f 8/1/6 5/1/6 6/1/6
f 9/1/1 2/1/1 1/1/1
f 2/1/1 9/1/1 10/1/1
f 9/1/2 11/1/2 10/1/2
f 11/1/2 9/1/2 12/1/2
f 11/1/3 2/1/3 10/1/3
f 2/1/3 11/1/3 7/1/3
f 8/1/4 9/1/4 1/1/4
f 9/1/4 8/1/4 12/1/4
f 8/1/5 2/1/5 7/1/5
f 2/1/5 8/1/5 1/1/5
f 11/1/6 8/1/6 7/1/6
f 8/1/6 11/1/6 12/1/6
f 15/1/1 14/1/1 13/1/1
f 14/1/1 15/1/1 16/1/1
f 15/1/2 17/1/2 16/1/2
f 17/1/2 15/1/2 18/1/2
f 17/1/3 14/1/3 16/1/3
f 14/1/3 17/1/3 19/1/3
f 20/1/4 15/1/4 13/1/4
f 15/1/4 20/1/4 18/1/4
f 20/1/5 14/1/5 19/1/5
f 14/1/5 20/1/5 13/1/5
f 17/1/6 20/1/6 19/1/6
f 20/1/6 17/1/6 18/1/6
f 23/1/1 22/1/1 21/1/1
f 22/1/1 23/1/1 24/1/1
f 23/1/2 25/1/2 24/1/2
f 25/1/2 23/1/2 26/1/2
f 25/1/3 22/1/3 24/1/3
f 22/1/3 25/1/3 17/1/3
f 18/1/4 23/1/4 21/1/4
f 23/1/4 18/1/4 26/1/4
f 18/1/5 22/1/5 17/1/5
f 22/1/5 18/1/5 21/1/5
f 25/1/6 18/1/6 17/1/6
f 18/1/6 25/1/6 26/1/6
f 29/1/1 28/1/1 27/1/1
f 28/1/1 29/1/1 30/1/1
f 29/1/2 31/1/2 30/1/2
f 31/1/2 29/1/2 32/1/2
f 31/1/3 28/1/3 30/1/3
f 28/1/3 31/1/3 22/1/3
f 21/1/4 29/1/4 27/1/4
f 29/1/4 21/1/4 32/1/4
f 21/1/5 28/1/5 22/1/5
f 28/1/5 21/1/5 27/1/5
f 31/1/6 21/1/6 22/1/6
f 21/1/6 31/1/6 32/1/6
f 35/1/1 34/1/1 33/1/1
f 34/1/1 35/1/1 36/1/1
f 35/1/2 24/1/2 36/1/2
f 24/1/2 35/1/2 23/1/2
f 24/1/3 34/1/3 36/1/3
f 34/1/3 24/1/3 37/1/3
f 38/1/4 35/1/4 33/1/4
f 35/1/4 38/1/4 23/1/4
f 38/1/5 34/1/5 37/1/5
f 34/1/5 38/1/5 33/1/5
f 24/1/6 38/1/6 37/1/6
f 38/1/6 24/1/6 23/1/6
f 41/1/1 40/1/1 39/1/1
f 40/1/1 41/1/1 42/1/1
f 41/1/2 36/1/2 42/1/2
f 36/1/2 41/1/2 35/1/2
f 36/1/3 40/1/3 42/1/3
f 40/1/3 36/1/3 43/1/3
f 44/1/4 41/1/4 39/1/4
f 41/1/4 44/1/4 35/1/4
f 44/1/5 40/1/5 43/1/5
f 40/1/5 44/1/5 39/1/5
f 36/1/6 44/1/6 43/1/6
f 44/1/6 36/1/6 35/1/6
f 47/1/1 46/1/1 45/1/1
f 46/1/1 47/1/1 48/1/1
f 47/1/2 49/1/2 48/1/2
f 49/1/2 47/1/2 50/1/2
f 49/1/3 46/1/3 48/1/3
f 46/1/3 49/1/3 51/1/3
f 52/1/4 47/1/4 45/1/4
f 47/1/4 52/1/4 50/1/4
f 52/1/5 46/1/5 51/1/5
f 46/1/5 52/1/5 45/1/5
f 49/1/6 52/1/6 51/1/6
f 52/1/6 49/1/6 50/1/6
f 55/1/1 54/1/1 53/1/1
f 54/1/1 55/1/1 56/1/1
f 55/1/2 57/1/2 56/1/2
f 57/1/2 55/1/2 58/1/2
f 57/1/3 54/1/3 56/1/3
f 54/1/3 57/1/3 59/1/3
f 60/1/4 55/1/4 53/1/4
f 55/1/4 60/1/4 58/1/4
f 60/1/5 54/1/5 59/1/5
f 54/1/5 60/1/5 53/1/5
f 57/1/6 60/1/6 59/1/6
f 60/1/6 57/1/6 58/1/6
f 53/1/1 48/1/1 47/1/1
f 48/1/1 53/1/1 54/1/1
f 53/1/2 61/1/2 54/1/2
f 61/1/2 53/1/2 62/1/2
f 61/1/3 48/1/3 54/1/3
f 48/1/3 61/1/3 63/1/3
f 64/1/4 53/1/4 47/1/4
f 53/1/4 64/1/4 62/1/4
f 64/1/5 48/1/5 63/1/5
f 48/1/5 64/1/5 47/1/5
f 61/1/6 64/1/6 63/1/6
f 64/1/6 61/1/6 62/1/6
f 39/1/1 16/1/1 15/1/1
f 16/1/1 39/1/1 40/1/1
f 39/1/2 65/1/2 40/1/2
f 65/1/2 39/1/2 66/1/2
f 65/1/3 16/1/3 40/1/3
f 16/1/3 65/1/3 67/1/3
f 68/1/4 39/1/4 15/1/4
f 39/1/4 68/1/4 66/1/4
f 68/1/5 16/1/5 67/1/5
f 16/1/5 68/1/5 15/1/5
f 65/1/6 68/1/6 67/1/6
f 68/1/6 65/1/6 66/1/6
f 23/1/1 22/1/1 21/1/1
f 22/1/1 23/1/1 24/1/1
f 23/1/2 25/1/2 24/1/2
f 25/1/2 23/1/2 26/1/2
f 25/1/3 22/1/3 24/1/3
f 22/1/3 25/1/3 17/1/3
f 18/1/4 23/1/4 21/1/4
f 23/1/4 18/1/4 26/1/4
f 18/1/5 22/1/5 17/1/5
f 22/1/5 18/1/5 21/1/5
f 25/1/6 18/1/6 17/1/6
f 18/1/6 25/1/6 26/1/6

usemtl color14

f 71/1/1 70/1/1 69/1/1
f 70/1/1 71/1/1 72/1/1
f 71/1/2 73/1/2 72/1/2
f 73/1/2 71/1/2 74/1/2
f 73/1/3 70/1/3 72/1/3
f 70/1/3 73/1/3 75/1/3
f 76/1/4 71/1/4 69/1/4
f 71/1/4 76/1/4 74/1/4
f 76/1/5 70/1/5 75/1/5
f 70/1/5 76/1/5 69/1/5
f 73/1/6 76/1/6 75/1/6
f 76/1/6 73/1/6 74/1/6
f 79/1/1 78/1/1 77/1/1
f 78/1/1 79/1/1 80/1/1
f 79/1/2 81/1/2 80/1/2
f 81/1/2 79/1/2 82/1/2
f 81/1/3 78/1/3 80/1/3
f 78/1/3 81/1/3 83/1/3
f 84/1/4 79/1/4 77/1/4
f 79/1/4 84/1/4 82/1/4
f 84/1/5 78/1/5 83/1/5
f 78/1/5 84/1/5 77/1/5
f 81/1/6 84/1/6 83/1/6
f 84/1/6 81/1/6 82/1/6
f 87/1/1 86/1/1 85/1/1
f 86/1/1 87/1/1 88/1/1
f 87/1/2 89/1/2 88/1/2
f 89/1/2 87/1/2 90/1/2
f 89/1/3 86/1/3 88/1/3
f 86/1/3 89/1/3 91/1/3
f 92/1/4 87/1/4 85/1/4
f 87/1/4 92/1/4 90/1/4
f 92/1/5 86/1/5 91/1/5
f 86/1/5 92/1/5 85/1/5
f 89/1/6 92/1/6 91/1/6
f 92/1/6 89/1/6 90/1/6
f 95/1/1 94/1/1 93/1/1
f 94/1/1 95/1/1 96/1/1
f 95/1/2 97/1/2 96/1/2
f 97/1/2 95/1/2 98/1/2
f 97/1/3 94/1/3 96/1/3
f 94/1/3 97/1/3 99/1/3
f 100/1/4 95/1/4 93/1/4
f 95/1/4 100/1/4 98/1/4
f 100/1/5 94/1/5 99/1/5
f 94/1/5 100/1/5 93/1/5
f 97/1/6 100/1/6 99/1/6
f 100/1/6 97/1/6 98/1/6

