# Created by Kenney (www.kenney.nl)

mtllib HousingIcon.mtl

v 2 5 1
v 2 5 -1
v -2 5 1
v -2 5 -1
v -2 6 -1
v -2 6 1
v 2 6 -1
v 2 6 1
v 1 5 1
v 1 5 -1
v 1 6 -1
v 1 6 1
v 3 4 1.5
v 3 4 -1.5
v -3 4 1.5
v -3 4 -1.5
v -3 5 -1.5
v -3 5 1.5
v 3 5 -1.5
v 3 5 1.5
v 4 3 2
v 4 3 -2
v -4 3 2
v -4 3 -2
v -4 4 -2
v -4 4 2
v 4 4 -2
v 4 4 2
v 5 2 2.5
v 5 2 -2.5
v -5 2 2.5
v -5 2 -2.5
v -5 3 -2.5
v -5 3 2.5
v 5 3 -2.5
v 5 3 2.5
v 6 1 3
v 6 1 -3
v -6 1 3
v -6 1 -3
v -6 2 -3
v -6 2 3
v 6 2 -3
v 6 2 3
v 5 -6 2.5
v 5 -6 -2.5
v 4 -6 2.5
v 4 -6 -2.5
v 4 1 -2.5
v 4 1 2.5
v 5 1 -2.5
v 5 1 2.5
v 4 0 2.5
v 4 0 -2.5
v -5 0 2.5
v -5 0 -2.5
v -5 1 -2.5
v -5 1 2.5
v 4 -1 2.5
v 4 -1 -2.5
v -5 -1 2.5
v -5 -1 -2.5
v 2 -6 2.5
v 2 -6 -2.5
v 1 -6 2.5
v 1 -6 -2.5
v 1 -1 -2.5
v 1 -1 2.5
v 2 -1 -2.5
v 2 -1 2.5
v 1 -2 2.5
v 1 -2 -2.5
v -2 -2 2.5
v -2 -2 -2.5
v -2 -1 -2.5
v -2 -1 2.5
v -4 -6 2.5
v -4 -6 -2.5
v -5 -6 2.5
v -5 -6 -2.5
v -4 -1 -2.5
v -4 -1 2.5
v 1 -4 2.5
v 1 -4 -2.5
v -2 -4 2.5
v -2 -4 -2.5
v 2 -3 -2.5
v 2 -3 2.5
v 4 -3 -2.5
v 4 -3 2.5
v -2 -6 2.5
v -2 -6 -2.5
v -4 -3 -2.5
v -4 -3 2.5
v -2 -3 -2.5
v -2 -3 2.5
v -1 -6 2.5
v -1 -6 -2.5
v -1 -4 -2.5
v -1 -4 2.5
v 4 -3 2
v 4 -3 -2
v 2 -3 2
v 2 -3 -2
v 2 -1 -2
v 2 -1 2
v 4 -1 -2
v 4 -1 2
v -2 -3 2
v -2 -3 -2
v -4 -3 2
v -4 -3 -2
v -4 -1 -2
v -4 -1 2
v -2 -1 -2
v -2 -1 2
v 1 -7 2
v 1 -7 -2
v -1 -7 2
v -1 -7 -2
v -1 -4 -2
v -1 -4 2
v 1 -4 -2
v 1 -4 2
v 5 -7 3
v 5 -7 -3
v 1 -7 3
v 1 -7 -3
v 1 -6 -3
v 1 -6 3
v 5 -6 -3
v 5 -6 3
v -1 -7 3
v -1 -7 -3
v -5 -7 3
v -5 -7 -3
v -5 -6 -3
v -5 -6 3
v -1 -6 -3
v -1 -6 3

vn 0 -1 0
vn -1 0 0
vn 0 0 -1
vn 0 0 1
vn 1 0 0
vn 0 1 0

vt 0 0

usemtl color8

f 3/1/1 2/1/1 1/1/1
f 2/1/1 3/1/1 4/1/1
f 3/1/2 5/1/2 4/1/2
f 5/1/2 3/1/2 6/1/2
f 5/1/3 2/1/3 4/1/3
f 2/1/3 5/1/3 7/1/3
f 8/1/4 3/1/4 1/1/4
f 3/1/4 8/1/4 6/1/4
f 8/1/5 2/1/5 7/1/5
f 2/1/5 8/1/5 1/1/5
f 5/1/6 8/1/6 7/1/6
f 8/1/6 5/1/6 6/1/6
f 9/1/1 2/1/1 1/1/1
f 2/1/1 9/1/1 10/1/1
f 9/1/2 11/1/2 10/1/2
f 11/1/2 9/1/2 12/1/2
f 11/1/3 2/1/3 10/1/3
f 2/1/3 11/1/3 7/1/3
f 8/1/4 9/1/4 1/1/4
f 9/1/4 8/1/4 12/1/4
f 8/1/5 2/1/5 7/1/5
f 2/1/5 8/1/5 1/1/5
f 11/1/6 8/1/6 7/1/6
f 8/1/6 11/1/6 12/1/6
f 15/1/1 14/1/1 13/1/1
f 14/1/1 15/1/1 16/1/1
f 15/1/2 17/1/2 16/1/2
f 17/1/2 15/1/2 18/1/2
f 17/1/3 14/1/3 16/1/3
f 14/1/3 17/1/3 19/1/3
f 20/1/4 15/1/4 13/1/4
f 15/1/4 20/1/4 18/1/4
f 20/1/5 14/1/5 19/1/5
f 14/1/5 20/1/5 13/1/5
f 17/1/6 20/1/6 19/1/6
f 20/1/6 17/1/6 18/1/6
f 23/1/1 22/1/1 21/1/1
f 22/1/1 23/1/1 24/1/1
f 23/1/2 25/1/2 24/1/2
f 25/1/2 23/1/2 26/1/2
f 25/1/3 22/1/3 24/1/3
f 22/1/3 25/1/3 27/1/3
f 28/1/4 23/1/4 21/1/4
f 23/1/4 28/1/4 26/1/4
f 28/1/5 22/1/5 27/1/5
f 22/1/5 28/1/5 21/1/5
f 25/1/6 28/1/6 27/1/6
f 28/1/6 25/1/6 26/1/6
f 31/1/1 30/1/1 29/1/1
f 30/1/1 31/1/1 32/1/1
f 31/1/2 33/1/2 32/1/2
f 33/1/2 31/1/2 34/1/2
f 33/1/3 30/1/3 32/1/3
f 30/1/3 33/1/3 35/1/3
f 36/1/4 31/1/4 29/1/4
f 31/1/4 36/1/4 34/1/4
f 36/1/5 30/1/5 35/1/5
f 30/1/5 36/1/5 29/1/5
f 33/1/6 36/1/6 35/1/6
f 36/1/6 33/1/6 34/1/6
f 39/1/1 38/1/1 37/1/1
f 38/1/1 39/1/1 40/1/1
f 39/1/2 41/1/2 40/1/2
f 41/1/2 39/1/2 42/1/2
f 41/1/3 38/1/3 40/1/3
f 38/1/3 41/1/3 43/1/3
f 44/1/4 39/1/4 37/1/4
f 39/1/4 44/1/4 42/1/4
f 44/1/5 38/1/5 43/1/5
f 38/1/5 44/1/5 37/1/5
f 41/1/6 44/1/6 43/1/6
f 44/1/6 41/1/6 42/1/6

usemtl color0

f 47/1/1 46/1/1 45/1/1
f 46/1/1 47/1/1 48/1/1
f 47/1/2 49/1/2 48/1/2
f 49/1/2 47/1/2 50/1/2
f 49/1/3 46/1/3 48/1/3
f 46/1/3 49/1/3 51/1/3
f 52/1/4 47/1/4 45/1/4
f 47/1/4 52/1/4 50/1/4
f 52/1/5 46/1/5 51/1/5
f 46/1/5 52/1/5 45/1/5
f 49/1/6 52/1/6 51/1/6
f 52/1/6 49/1/6 50/1/6
f 55/1/1 54/1/1 53/1/1
f 54/1/1 55/1/1 56/1/1
f 55/1/2 57/1/2 56/1/2
f 57/1/2 55/1/2 58/1/2
f 57/1/3 54/1/3 56/1/3
f 54/1/3 57/1/3 49/1/3
f 50/1/4 55/1/4 53/1/4
f 55/1/4 50/1/4 58/1/4
f 50/1/5 54/1/5 49/1/5
f 54/1/5 50/1/5 53/1/5
f 57/1/6 50/1/6 49/1/6
f 50/1/6 57/1/6 58/1/6
f 61/1/1 60/1/1 59/1/1
f 60/1/1 61/1/1 62/1/1
f 61/1/2 56/1/2 62/1/2
f 56/1/2 61/1/2 55/1/2
f 56/1/3 60/1/3 62/1/3
f 60/1/3 56/1/3 54/1/3
f 53/1/4 61/1/4 59/1/4
f 61/1/4 53/1/4 55/1/4
f 53/1/5 60/1/5 54/1/5
f 60/1/5 53/1/5 59/1/5
f 56/1/6 53/1/6 54/1/6
f 53/1/6 56/1/6 55/1/6
f 65/1/1 64/1/1 63/1/1
f 64/1/1 65/1/1 66/1/1
f 65/1/2 67/1/2 66/1/2
f 67/1/2 65/1/2 68/1/2
f 67/1/3 64/1/3 66/1/3
f 64/1/3 67/1/3 69/1/3
f 70/1/4 65/1/4 63/1/4
f 65/1/4 70/1/4 68/1/4
f 70/1/5 64/1/5 69/1/5
f 64/1/5 70/1/5 63/1/5
f 67/1/6 70/1/6 69/1/6
f 70/1/6 67/1/6 68/1/6
f 73/1/1 72/1/1 71/1/1
f 72/1/1 73/1/1 74/1/1
f 73/1/2 75/1/2 74/1/2
f 75/1/2 73/1/2 76/1/2
f 75/1/3 72/1/3 74/1/3
f 72/1/3 75/1/3 67/1/3
f 68/1/4 73/1/4 71/1/4
f 73/1/4 68/1/4 76/1/4
f 68/1/5 72/1/5 67/1/5
f 72/1/5 68/1/5 71/1/5
f 75/1/6 68/1/6 67/1/6
f 68/1/6 75/1/6 76/1/6
f 79/1/1 78/1/1 77/1/1
f 78/1/1 79/1/1 80/1/1
f 79/1/2 62/1/2 80/1/2
f 62/1/2 79/1/2 61/1/2
f 62/1/3 78/1/3 80/1/3
f 78/1/3 62/1/3 81/1/3
f 82/1/4 79/1/4 77/1/4
f 79/1/4 82/1/4 61/1/4
f 82/1/5 78/1/5 81/1/5
f 78/1/5 82/1/5 77/1/5
f 62/1/6 82/1/6 81/1/6
f 82/1/6 62/1/6 61/1/6
f 85/1/1 84/1/1 83/1/1
f 84/1/1 85/1/1 86/1/1
f 85/1/2 74/1/2 86/1/2
f 74/1/2 85/1/2 73/1/2
f 74/1/3 84/1/3 86/1/3
f 84/1/3 74/1/3 72/1/3
f 71/1/4 85/1/4 83/1/4
f 85/1/4 71/1/4 73/1/4
f 71/1/5 84/1/5 72/1/5
f 84/1/5 71/1/5 83/1/5
f 74/1/6 71/1/6 72/1/6
f 71/1/6 74/1/6 73/1/6
f 63/1/1 48/1/1 47/1/1
f 48/1/1 63/1/1 64/1/1
f 63/1/2 87/1/2 64/1/2
f 87/1/2 63/1/2 88/1/2
f 87/1/3 48/1/3 64/1/3
f 48/1/3 87/1/3 89/1/3
f 90/1/4 63/1/4 47/1/4
f 63/1/4 90/1/4 88/1/4
f 90/1/5 48/1/5 89/1/5
f 48/1/5 90/1/5 47/1/5
f 87/1/6 90/1/6 89/1/6
f 90/1/6 87/1/6 88/1/6
f 77/1/1 92/1/1 91/1/1
f 92/1/1 77/1/1 78/1/1
f 77/1/2 93/1/2 78/1/2
f 93/1/2 77/1/2 94/1/2
f 93/1/3 92/1/3 78/1/3
f 92/1/3 93/1/3 95/1/3
f 96/1/4 77/1/4 91/1/4
f 77/1/4 96/1/4 94/1/4
f 96/1/5 92/1/5 95/1/5
f 92/1/5 96/1/5 91/1/5
f 93/1/6 96/1/6 95/1/6
f 96/1/6 93/1/6 94/1/6
f 91/1/1 98/1/1 97/1/1
f 98/1/1 91/1/1 92/1/1
f 91/1/2 86/1/2 92/1/2
f 86/1/2 91/1/2 85/1/2
f 86/1/3 98/1/3 92/1/3
f 98/1/3 86/1/3 99/1/3
f 100/1/4 91/1/4 97/1/4
f 91/1/4 100/1/4 85/1/4
f 100/1/5 98/1/5 99/1/5
f 98/1/5 100/1/5 97/1/5
f 86/1/6 100/1/6 99/1/6
f 100/1/6 86/1/6 85/1/6
f 55/1/1 54/1/1 53/1/1
f 54/1/1 55/1/1 56/1/1
f 55/1/2 57/1/2 56/1/2
f 57/1/2 55/1/2 58/1/2
f 57/1/3 54/1/3 56/1/3
f 54/1/3 57/1/3 49/1/3
f 50/1/4 55/1/4 53/1/4
f 55/1/4 50/1/4 58/1/4
f 50/1/5 54/1/5 49/1/5
f 54/1/5 50/1/5 53/1/5
f 57/1/6 50/1/6 49/1/6
f 50/1/6 57/1/6 58/1/6
f 73/1/1 72/1/1 71/1/1
f 72/1/1 73/1/1 74/1/1
f 73/1/2 75/1/2 74/1/2
f 75/1/2 73/1/2 76/1/2
f 75/1/3 72/1/3 74/1/3
f 72/1/3 75/1/3 67/1/3
f 68/1/4 73/1/4 71/1/4
f 73/1/4 68/1/4 76/1/4
f 68/1/5 72/1/5 67/1/5
f 72/1/5 68/1/5 71/1/5
f 75/1/6 68/1/6 67/1/6
f 68/1/6 75/1/6 76/1/6

usemtl color11

f 103/1/1 102/1/1 101/1/1
f 102/1/1 103/1/1 104/1/1
f 103/1/2 105/1/2 104/1/2
f 105/1/2 103/1/2 106/1/2
f 105/1/3 102/1/3 104/1/3
f 102/1/3 105/1/3 107/1/3
f 108/1/4 103/1/4 101/1/4
f 103/1/4 108/1/4 106/1/4
f 108/1/5 102/1/5 107/1/5
f 102/1/5 108/1/5 101/1/5
f 105/1/6 108/1/6 107/1/6
f 108/1/6 105/1/6 106/1/6
f 111/1/1 110/1/1 109/1/1
f 110/1/1 111/1/1 112/1/1
f 111/1/2 113/1/2 112/1/2
f 113/1/2 111/1/2 114/1/2
f 113/1/3 110/1/3 112/1/3
f 110/1/3 113/1/3 115/1/3
f 116/1/4 111/1/4 109/1/4
f 111/1/4 116/1/4 114/1/4
f 116/1/5 110/1/5 115/1/5
f 110/1/5 116/1/5 109/1/5
f 113/1/6 116/1/6 115/1/6
f 116/1/6 113/1/6 114/1/6

usemtl color15

f 119/1/1 118/1/1 117/1/1
f 118/1/1 119/1/1 120/1/1
f 119/1/2 121/1/2 120/1/2
f 121/1/2 119/1/2 122/1/2
f 121/1/3 118/1/3 120/1/3
f 118/1/3 121/1/3 123/1/3
f 124/1/4 119/1/4 117/1/4
f 119/1/4 124/1/4 122/1/4
f 124/1/5 118/1/5 123/1/5
f 118/1/5 124/1/5 117/1/5
f 121/1/6 124/1/6 123/1/6
f 124/1/6 121/1/6 122/1/6

usemtl color7

f 127/1/1 126/1/1 125/1/1
f 126/1/1 127/1/1 128/1/1
f 127/1/2 129/1/2 128/1/2
f 129/1/2 127/1/2 130/1/2
f 129/1/3 126/1/3 128/1/3
f 126/1/3 129/1/3 131/1/3
f 132/1/4 127/1/4 125/1/4
f 127/1/4 132/1/4 130/1/4
f 132/1/5 126/1/5 131/1/5
f 126/1/5 132/1/5 125/1/5
f 129/1/6 132/1/6 131/1/6
f 132/1/6 129/1/6 130/1/6
f 135/1/1 134/1/1 133/1/1
f 134/1/1 135/1/1 136/1/1
f 135/1/2 137/1/2 136/1/2
f 137/1/2 135/1/2 138/1/2
f 137/1/3 134/1/3 136/1/3
f 134/1/3 137/1/3 139/1/3
f 140/1/4 135/1/4 133/1/4
f 135/1/4 140/1/4 138/1/4
f 140/1/5 134/1/5 139/1/5
f 134/1/5 140/1/5 133/1/5
f 137/1/6 140/1/6 139/1/6
f 140/1/6 137/1/6 138/1/6

