# MagicaVoxel @ Ephtracy

# group
o 

# material
mtllib lazer.mtl
usemtl palette

# normals
vn -1 0 0
vn 1 0 0
vn 0 0 1
vn 0 0 -1
vn 0 -1 0
vn 0 1 0

# texcoords
vt 0.134766 0.5
vt 0.845703 0.5

# verts
v -0.1 0 0.1
v -0.1 0 -1.49012e-008
v -0.1 0 -0.1
v -0.1 0.1 0.1
v -0.1 0.1 -1.49012e-008
v -0.1 0.1 -0.1
v -0.1 0.2 0.1
v -0.1 0.2 -1.49012e-008
v -0.1 0.3 0.1
v -0.1 0.3 -1.49012e-008
v -0.1 0.4 -1.49012e-008
v -0.1 0.4 -0.1
v -0.1 0.5 0.1
v -0.1 0.5 -1.49012e-008
v -0.1 0.6 -1.49012e-008
v -0.1 0.6 -0.1
v -0.1 0.7 0.1
v -0.1 0.7 -1.49012e-008
v -0.1 0.8 0.1
v -0.1 0.8 -1.49012e-008
v -0.1 0.8 -0.1
v 0.1 0 0.1
v 0.1 0 -0.1
v 0.1 0.2 0.1
v 0.1 0.2 -0.1
v 0.1 0.3 0.1
v 0.1 0.3 -1.49012e-008
v 0.1 0.4 -1.49012e-008
v 0.1 0.4 -0.1
v 0.1 0.6 0.1
v 0.1 0.6 -0.1
v 0.1 0.7 0.1
v 0.1 0.7 -1.49012e-008
v 0.1 0.8 0.1
v 0.1 0.8 -1.49012e-008
v 0.1 0.8 -0.1
v -0.1 0 0.1
v -0.1 0.1 0.1
v -0.1 0.2 0.1
v -0.1 0.3 0.1
v -0.1 0.5 0.1
v -0.1 0.7 0.1
v -0.1 0.8 0.1
v 1.49012e-008 0.1 0.1
v 1.49012e-008 0.2 0.1
v 1.49012e-008 0.3 0.1
v 1.49012e-008 0.5 0.1
v 1.49012e-008 0.6 0.1
v 1.49012e-008 0.7 0.1
v 1.49012e-008 0.8 0.1
v 0.1 0 0.1
v 0.1 0.2 0.1
v 0.1 0.3 0.1
v 0.1 0.6 0.1
v 0.1 0.7 0.1
v 0.1 0.8 0.1
v -0.1 0 -0.1
v -0.1 0.1 -0.1
v -0.1 0.4 -0.1
v -0.1 0.6 -0.1
v -0.1 0.8 -0.1
v 1.49012e-008 0 -0.1
v 1.49012e-008 0.1 -0.1
v 1.49012e-008 0.2 -0.1
v 1.49012e-008 0.4 -0.1
v 1.49012e-008 0.6 -0.1
v 1.49012e-008 0.8 -0.1
v 0.1 0 -0.1
v 0.1 0.2 -0.1
v 0.1 0.4 -0.1
v 0.1 0.6 -0.1
v 0.1 0.8 -0.1
v -0.1 0 0.1
v 0.1 0 0.1
v -0.1 0 -1.49012e-008
v 1.49012e-008 0 -1.49012e-008
v -0.1 0 -0.1
v 1.49012e-008 0 -0.1
v 0.1 0 -0.1
v -0.1 0.8 0.1
v 1.49012e-008 0.8 0.1
v 0.1 0.8 0.1
v -0.1 0.8 -1.49012e-008
v 1.49012e-008 0.8 -1.49012e-008
v 0.1 0.8 -1.49012e-008
v -0.1 0.8 -0.1
v 1.49012e-008 0.8 -0.1
v 0.1 0.8 -0.1

# faces
f 4/2/1 2/2/1 1/2/1
f 5/1/1 3/1/1 2/1/1
f 5/2/1 2/2/1 4/2/1
f 6/1/1 3/1/1 5/1/1
f 7/1/1 5/1/1 4/1/1
f 8/2/1 6/2/1 5/2/1
f 8/1/1 5/1/1 7/1/1
f 9/2/1 8/2/1 7/2/1
f 10/2/1 6/2/1 8/2/1
f 10/2/1 8/2/1 9/2/1
f 11/1/1 10/1/1 9/1/1
f 11/2/1 6/2/1 10/2/1
f 12/2/1 6/2/1 11/2/1
f 13/1/1 11/1/1 9/1/1
f 13/1/1 12/1/1 11/1/1
f 14/1/1 12/1/1 13/1/1
f 15/2/1 14/2/1 13/2/1
f 15/1/1 12/1/1 14/1/1
f 16/1/1 12/1/1 15/1/1
f 17/2/1 15/2/1 13/2/1
f 17/2/1 16/2/1 15/2/1
f 18/2/1 16/2/1 17/2/1
f 19/1/1 18/1/1 17/1/1
f 20/2/1 16/2/1 18/2/1
f 20/1/1 18/1/1 19/1/1
f 21/2/1 16/2/1 20/2/1
f 22/2/2 23/2/2 24/2/2
f 24/2/2 23/2/2 25/2/2
f 24/1/2 25/1/2 26/1/2
f 26/1/2 25/1/2 27/1/2
f 26/2/2 27/2/2 28/2/2
f 27/1/2 25/1/2 28/1/2
f 28/1/2 25/1/2 29/1/2
f 26/2/2 28/2/2 30/2/2
f 28/2/2 29/2/2 30/2/2
f 30/2/2 29/2/2 31/2/2
f 30/1/2 31/1/2 32/1/2
f 32/1/2 31/1/2 33/1/2
f 32/2/2 33/2/2 34/2/2
f 33/1/2 31/1/2 35/1/2
f 34/2/2 33/2/2 35/2/2
f 35/1/2 31/1/2 36/1/2
f 44/2/3 38/2/3 37/2/3
f 44/1/3 39/1/3 38/1/3
f 45/2/3 40/2/3 39/2/3
f 45/1/3 39/1/3 44/1/3
f 46/1/3 41/1/3 40/1/3
f 46/2/3 40/2/3 45/2/3
f 47/2/3 42/2/3 41/2/3
f 47/1/3 41/1/3 46/1/3
f 48/2/3 42/2/3 47/2/3
f 49/1/3 43/1/3 42/1/3
f 49/2/3 42/2/3 48/2/3
f 50/1/3 43/1/3 49/1/3
f 51/2/3 44/2/3 37/2/3
f 51/2/3 45/2/3 44/2/3
f 52/1/3 46/1/3 45/1/3
f 52/2/3 45/2/3 51/2/3
f 53/2/3 48/2/3 47/2/3
f 53/1/3 46/1/3 52/1/3
f 53/2/3 47/2/3 46/2/3
f 54/1/3 49/1/3 48/1/3
f 54/2/3 48/2/3 53/2/3
f 55/2/3 50/2/3 49/2/3
f 55/1/3 49/1/3 54/1/3
f 56/2/3 50/2/3 55/2/3
f 57/1/4 58/1/4 62/1/4
f 58/2/4 59/2/4 63/2/4
f 62/1/4 58/1/4 63/1/4
f 63/2/4 59/2/4 64/2/4
f 59/1/4 60/1/4 65/1/4
f 64/2/4 59/2/4 65/2/4
f 60/2/4 61/2/4 66/2/4
f 65/1/4 60/1/4 66/1/4
f 66/2/4 61/2/4 67/2/4
f 63/2/4 64/2/4 68/2/4
f 62/2/4 63/2/4 68/2/4
f 64/1/4 65/1/4 69/1/4
f 68/2/4 64/2/4 69/2/4
f 65/2/4 66/2/4 70/2/4
f 69/1/4 65/1/4 70/1/4
f 66/1/4 67/1/4 71/1/4
f 70/2/4 66/2/4 71/2/4
f 71/1/4 67/1/4 72/1/4
f 75/2/5 74/2/5 73/2/5
f 76/2/5 74/2/5 75/2/5
f 77/1/5 76/1/5 75/1/5
f 78/2/5 74/2/5 76/2/5
f 78/1/5 76/1/5 77/1/5
f 79/2/5 74/2/5 78/2/5
f 80/1/6 81/1/6 83/1/6
f 81/2/6 82/2/6 84/2/6
f 83/1/6 81/1/6 84/1/6
f 84/2/6 82/2/6 85/2/6
f 83/2/6 84/2/6 86/2/6
f 84/1/6 85/1/6 87/1/6
f 86/2/6 84/2/6 87/2/6
f 87/1/6 85/1/6 88/1/6
