# Created by Kenney (www.kenney.nl)

mtllib PlayButton.mtl

v 3 -6 2
v 3 -6 -2
v 1 -6 2
v 1 -6 -2
v 1 7 -2
v 1 7 2
v 3 7 -2
v 3 7 2
v 3 6 2
v 3 6 -2
v 2 6 2
v 2 6 -2
v 2 7 -2
v 2 7 2
v 1 -5 2
v 1 -5 -2
v 0 -5 2
v 0 -5 -2
v 0 6 -2
v 0 6 2
v 1 6 -2
v 1 6 2
v 0 -4 2
v 0 -4 -2
v -1 -4 2
v -1 -4 -2
v -1 5 -2
v -1 5 2
v 0 5 -2
v 0 5 2
v -1 -3 2
v -1 -3 -2
v -2 -3 2
v -2 -3 -2
v -2 4 -2
v -2 4 2
v -1 4 -2
v -1 4 2
v -2 -2 2
v -2 -2 -2
v -3 -2 2
v -3 -2 -2
v -3 3 -2
v -3 3 2
v -2 3 -2
v -2 3 2
v -3 -1 2
v -3 -1 -2
v -4 -1 2
v -4 -1 -2
v -4 2 -2
v -4 2 2
v -3 2 -2
v -3 2 2
v -4 0 2
v -4 0 -2
v -5 0 2
v -5 0 -2
v -5 1 -2
v -5 1 2
v -4 1 -2
v -4 1 2

vn 0 -1 0
vn -1 0 0
vn 0 0 -1
vn 0 0 1
vn 1 0 0
vn 0 1 0

vt 0 0

usemtl color11

f 3/1/1 2/1/1 1/1/1
f 2/1/1 3/1/1 4/1/1
f 3/1/2 5/1/2 4/1/2
f 5/1/2 3/1/2 6/1/2
f 5/1/3 2/1/3 4/1/3
f 2/1/3 5/1/3 7/1/3
f 8/1/4 3/1/4 1/1/4
f 3/1/4 8/1/4 6/1/4
f 8/1/5 2/1/5 7/1/5
f 2/1/5 8/1/5 1/1/5
f 5/1/6 8/1/6 7/1/6
f 8/1/6 5/1/6 6/1/6
f 11/1/1 10/1/1 9/1/1
f 10/1/1 11/1/1 12/1/1
f 11/1/2 13/1/2 12/1/2
f 13/1/2 11/1/2 14/1/2
f 13/1/3 10/1/3 12/1/3
f 10/1/3 13/1/3 7/1/3
f 8/1/4 11/1/4 9/1/4
f 11/1/4 8/1/4 14/1/4
f 8/1/5 10/1/5 7/1/5
f 10/1/5 8/1/5 9/1/5
f 13/1/6 8/1/6 7/1/6
f 8/1/6 13/1/6 14/1/6
f 17/1/1 16/1/1 15/1/1
f 16/1/1 17/1/1 18/1/1
f 17/1/2 19/1/2 18/1/2
f 19/1/2 17/1/2 20/1/2
f 19/1/3 16/1/3 18/1/3
f 16/1/3 19/1/3 21/1/3
f 22/1/4 17/1/4 15/1/4
f 17/1/4 22/1/4 20/1/4
f 22/1/5 16/1/5 21/1/5
f 16/1/5 22/1/5 15/1/5
f 19/1/6 22/1/6 21/1/6
f 22/1/6 19/1/6 20/1/6
f 25/1/1 24/1/1 23/1/1
f 24/1/1 25/1/1 26/1/1
f 25/1/2 27/1/2 26/1/2
f 27/1/2 25/1/2 28/1/2
f 27/1/3 24/1/3 26/1/3
f 24/1/3 27/1/3 29/1/3
f 30/1/4 25/1/4 23/1/4
f 25/1/4 30/1/4 28/1/4
f 30/1/5 24/1/5 29/1/5
f 24/1/5 30/1/5 23/1/5
f 27/1/6 30/1/6 29/1/6
f 30/1/6 27/1/6 28/1/6
f 33/1/1 32/1/1 31/1/1
f 32/1/1 33/1/1 34/1/1
f 33/1/2 35/1/2 34/1/2
f 35/1/2 33/1/2 36/1/2
f 35/1/3 32/1/3 34/1/3
f 32/1/3 35/1/3 37/1/3
f 38/1/4 33/1/4 31/1/4
f 33/1/4 38/1/4 36/1/4
f 38/1/5 32/1/5 37/1/5
f 32/1/5 38/1/5 31/1/5
f 35/1/6 38/1/6 37/1/6
f 38/1/6 35/1/6 36/1/6
f 41/1/1 40/1/1 39/1/1
f 40/1/1 41/1/1 42/1/1
f 41/1/2 43/1/2 42/1/2
f 43/1/2 41/1/2 44/1/2
f 43/1/3 40/1/3 42/1/3
f 40/1/3 43/1/3 45/1/3
f 46/1/4 41/1/4 39/1/4
f 41/1/4 46/1/4 44/1/4
f 46/1/5 40/1/5 45/1/5
f 40/1/5 46/1/5 39/1/5
f 43/1/6 46/1/6 45/1/6
f 46/1/6 43/1/6 44/1/6
f 49/1/1 48/1/1 47/1/1
f 48/1/1 49/1/1 50/1/1
f 49/1/2 51/1/2 50/1/2
f 51/1/2 49/1/2 52/1/2
f 51/1/3 48/1/3 50/1/3
f 48/1/3 51/1/3 53/1/3
f 54/1/4 49/1/4 47/1/4
f 49/1/4 54/1/4 52/1/4
f 54/1/5 48/1/5 53/1/5
f 48/1/5 54/1/5 47/1/5
f 51/1/6 54/1/6 53/1/6
f 54/1/6 51/1/6 52/1/6
f 57/1/1 56/1/1 55/1/1
f 56/1/1 57/1/1 58/1/1
f 57/1/2 59/1/2 58/1/2
f 59/1/2 57/1/2 60/1/2
f 59/1/3 56/1/3 58/1/3
f 56/1/3 59/1/3 61/1/3
f 62/1/4 57/1/4 55/1/4
f 57/1/4 62/1/4 60/1/4
f 62/1/5 56/1/5 61/1/5
f 56/1/5 62/1/5 55/1/5
f 59/1/6 62/1/6 61/1/6
f 62/1/6 59/1/6 60/1/6

